<svg width="206" height="66" viewBox="0 0 206 66" fill="none" xmlns="http://www.w3.org/2000/svg">
<path d="M172.447 1H33.5532C15.8742 1 1.54256 15.3082 1.54256 32.9583C1.54256 50.6084 15.8742 64.9167 33.5532 64.9167H172.447C190.126 64.9167 204.457 50.6084 204.457 32.9583C204.457 15.3082 190.126 1 172.447 1Z" fill="#333333" stroke="#4B8092" stroke-width="2"/>
<path d="M51.4705 22.8951C53.1632 22.8951 54.6737 23.251 56.0019 23.9629C57.3561 24.6748 58.4108 25.7295 59.166 27.1269C59.9473 28.5243 60.338 30.2118 60.338 32.1893V45.0431H55.9237V32.8617C55.9237 30.9105 55.442 29.4208 54.4784 28.3925C53.5148 27.3378 52.1997 26.8105 50.5329 26.8105C48.8662 26.8105 47.538 27.3378 46.5484 28.3925C45.5849 29.4208 45.1031 30.9105 45.1031 32.8617V45.0431H40.6889V32.8617C40.6889 30.9105 40.2071 29.4208 39.2435 28.3925C38.2799 27.3378 36.9648 26.8105 35.298 26.8105C33.6313 26.8105 32.3031 27.3378 31.3135 28.3925C30.35 29.4208 29.8682 30.9105 29.8682 32.8617V45.0431H25.4149V23.251H29.8682V25.7427C30.5974 24.8462 31.5219 24.1475 32.6417 23.6465C33.7615 23.1455 34.9595 22.8951 36.2356 22.8951C37.9544 22.8951 39.4909 23.2642 40.8451 24.0025C42.1993 24.7407 43.241 25.8086 43.9702 27.206C44.6213 25.8877 45.6369 24.8462 47.0172 24.0816C48.3974 23.2906 49.8819 22.8951 51.4705 22.8951ZM64.5202 34.0482C64.5202 31.8597 64.9629 29.9218 65.8483 28.2343C66.7598 26.5468 67.9838 25.2417 69.5203 24.3189C71.0829 23.3697 72.8017 22.8951 74.6768 22.8951C76.3695 22.8951 77.8409 23.2378 79.091 23.9234C80.3671 24.5825 81.3827 25.4131 82.138 26.415V23.251H86.6303V45.0431H82.138V41.8C81.3827 42.8283 80.354 43.6852 79.0519 44.3707C77.7498 45.0562 76.2654 45.399 74.5986 45.399C72.7496 45.399 71.0569 44.9244 69.5203 43.9752C67.9838 42.9996 66.7598 41.6549 65.8483 39.9411C64.9629 38.2009 64.5202 36.2366 64.5202 34.0482ZM82.138 34.1273C82.138 32.6244 81.8255 31.3192 81.2004 30.2118C80.6014 29.1044 79.8072 28.2607 78.8175 27.6806C77.8279 27.1005 76.7602 26.8105 75.6143 26.8105C74.4684 26.8105 73.4007 27.1005 72.4111 27.6806C71.4214 28.2343 70.6141 29.0649 69.9891 30.1723C69.3901 31.2533 69.0906 32.5453 69.0906 34.0482C69.0906 35.5511 69.3901 36.8694 69.9891 38.0032C70.6141 39.1369 71.4214 40.007 72.4111 40.6135C73.4267 41.1935 74.4945 41.4836 75.6143 41.4836C76.7602 41.4836 77.8279 41.1935 78.8175 40.6135C79.8072 40.0334 80.6014 39.1897 81.2004 38.0823C81.8255 36.9485 82.138 35.6302 82.138 34.1273ZM101.699 34.0086L108.652 45.0431H103.613L98.9641 37.6472L94.5889 45.0431H89.9403L96.8937 34.325L89.9403 23.251H94.9795L99.6281 30.6469L104.003 23.251H108.652L101.699 34.0086ZM110.489 34.0482C110.489 31.8597 110.932 29.9218 111.817 28.2343C112.729 26.5468 113.953 25.2417 115.489 24.3189C117.052 23.3697 118.771 22.8951 120.646 22.8951C122.338 22.8951 123.81 23.2378 125.06 23.9234C126.336 24.5825 127.352 25.4131 128.107 26.415V23.251H132.599V45.0431H128.107V41.8C127.352 42.8283 126.323 43.6852 125.021 44.3707C123.719 45.0562 122.234 45.399 120.567 45.399C118.718 45.399 117.026 44.9244 115.489 43.9752C113.953 42.9996 112.729 41.6549 111.817 39.9411C110.932 38.2009 110.489 36.2366 110.489 34.0482ZM128.107 34.1273C128.107 32.6244 127.794 31.3192 127.169 30.2118C126.57 29.1044 125.776 28.2607 124.786 27.6806C123.797 27.1005 122.729 26.8105 121.583 26.8105C120.437 26.8105 119.369 27.1005 118.38 27.6806C117.39 28.2343 116.583 29.0649 115.958 30.1723C115.359 31.2533 115.059 32.5453 115.059 34.0482C115.059 35.5511 115.359 36.8694 115.958 38.0032C116.583 39.1369 117.39 40.007 118.38 40.6135C119.396 41.1935 120.463 41.4836 121.583 41.4836C122.729 41.4836 123.797 41.1935 124.786 40.6135C125.776 40.0334 126.57 39.1897 127.169 38.0823C127.794 36.9485 128.107 35.6302 128.107 34.1273ZM136.964 34.0482C136.964 31.8597 137.407 29.9218 138.292 28.2343C139.203 26.5468 140.427 25.2417 141.964 24.3189C143.527 23.3697 145.258 22.8951 147.159 22.8951C148.566 22.8951 149.946 23.2115 151.3 23.8443C152.681 24.4507 153.774 25.2681 154.582 26.2964V15.7761H159.074V45.0431H154.582V41.7604C153.852 42.8151 152.837 43.6852 151.535 44.3707C150.259 45.0562 148.787 45.399 147.12 45.399C145.245 45.399 143.527 44.9244 141.964 43.9752C140.427 42.9996 139.203 41.6549 138.292 39.9411C137.407 38.2009 136.964 36.2366 136.964 34.0482ZM154.582 34.1273C154.582 32.6244 154.269 31.3192 153.644 30.2118C153.045 29.1044 152.251 28.2607 151.261 27.6806C150.272 27.1005 149.204 26.8105 148.058 26.8105C146.912 26.8105 145.844 27.1005 144.855 27.6806C143.865 28.2343 143.058 29.0649 142.433 30.1723C141.834 31.2533 141.534 32.5453 141.534 34.0482C141.534 35.5511 141.834 36.8694 142.433 38.0032C143.058 39.1369 143.865 40.007 144.855 40.6135C145.87 41.1935 146.938 41.4836 148.058 41.4836C149.204 41.4836 150.272 41.1935 151.261 40.6135C152.251 40.0334 153.045 39.1897 153.644 38.0823C154.269 36.9485 154.582 35.6302 154.582 34.1273ZM174.259 45.399C172.228 45.399 170.392 44.9376 168.751 44.0148C167.111 43.0656 165.822 41.7472 164.884 40.0598C163.947 38.3459 163.478 36.3684 163.478 34.1273C163.478 31.9125 163.96 29.9481 164.923 28.2343C165.887 26.5205 167.202 25.2021 168.869 24.2793C170.535 23.3565 172.397 22.8951 174.455 22.8951C176.512 22.8951 178.374 23.3565 180.041 24.2793C181.708 25.2021 183.023 26.5205 183.986 28.2343C184.95 29.9481 185.432 31.9125 185.432 34.1273C185.432 36.3421 184.937 38.3064 183.947 40.0202C182.958 41.734 181.603 43.0656 179.885 44.0148C178.192 44.9376 176.317 45.399 174.259 45.399ZM174.259 41.4836C175.405 41.4836 176.473 41.2067 177.463 40.653C178.478 40.0993 179.299 39.2688 179.924 38.1614C180.549 37.054 180.861 35.7093 180.861 34.1273C180.861 32.5453 180.562 31.2137 179.963 30.1327C179.364 29.0253 178.569 28.1948 177.58 27.6411C176.59 27.0874 175.522 26.8105 174.377 26.8105C173.231 26.8105 172.163 27.0874 171.173 27.6411C170.21 28.1948 169.442 29.0253 168.869 30.1327C168.296 31.2137 168.009 32.5453 168.009 34.1273C168.009 36.4739 168.595 38.2932 169.767 39.5852C170.965 40.8508 172.462 41.4836 174.259 41.4836Z" fill="#00BFFF"/>
</svg>
