<svg width="210" height="210" viewBox="0 0 210 210" fill="none" xmlns="http://www.w3.org/2000/svg">
<circle cx="105" cy="105" r="103" fill="#313131" stroke="#4B8092" stroke-width="4"/>
<circle cx="105.5" cy="100.5" r="62.5" fill="#00BFFF"/>
<path d="M106 173C144.66 173 176 141.66 176 103V48.5C176 39.6267 168.444 38.0634 164.5 42.5C160.556 46.9366 106.284 100.042 105.298 100.042C104.312 100.042 51.9437 47.4366 48 43C44.0563 38.5634 35.4999 39.3764 35.5 48.2497V103C35.5 141.66 67.3401 173 106 173Z" fill="#303030" stroke="#00BFFF" stroke-width="3"/>
<path d="M101.893 125.393L61.0001 84.5C59 82.5001 55.5 83.0001 55.5001 87L55.5001 100.5C55.5001 171 156 171 156 100.5L156 87.5C156 83.5002 152.774 82.2277 150.5 84.5L109.893 125.393C107.893 127.393 103.893 127.393 101.893 125.393Z" fill="#00BFFF"/>
<path d="M100.5 130.5L60 90V102.5C60 158.5 147 166.5 151.5 102.5V90L111 130.5C109 132.5 102.5 132.5 100.5 130.5Z" fill="#00BFFF"/>
</svg>
