<svg width="60" height="38" viewBox="0 0 60 38" fill="none" xmlns="http://www.w3.org/2000/svg">
<rect x="1.96899" y="1.73499" width="56" height="34" rx="17" fill="#00BFFF"/>
<path d="M21.2465 0.108721C24.6403 0.0937212 36.2653 0.181221 38.6865 0.108721C66.2865 -0.718779 67.3877 38.4125 38.6865 37.6375C34.3265 37.6562 22.6965 37.5575 21.2465 37.6375C8.29776 38.3525 -0.0534921 29.11 0.000257923 18.5475C0.0527579 7.98372 9.41276 -1.10253 21.2465 0.108721ZM31.099 18.8725C31.2778 12.1687 25.269 6.25247 18.5803 6.35372C9.44276 6.49247 5.47776 14.7287 6.06026 20.0375C6.84151 27.1512 12.5515 31.3625 18.5803 31.3925C25.5003 31.425 30.9078 26.0075 31.099 18.8725Z" fill="#2A2929"/>
</svg>
