<svg width="65" height="43" viewBox="0 0 65 43" fill="none" xmlns="http://www.w3.org/2000/svg">
<rect x="2.95538" y="2.64749" width="60" height="38" rx="19" fill="#00BFFF" stroke="#4B8092" stroke-width="4"/>
<path d="M44.5916 3.0375C56.3616 3.26125 66.5229 16.005 61.7566 28.5313C59.1254 35.4463 52.1454 40.39 44.5916 40.5338C36.8404 40.5838 29.0891 40.5838 21.3379 40.5338C9.27163 40.305 -1.09212 26.5925 4.60913 13.9925C7.50913 7.5825 14.2154 3.1725 21.3379 3.0375C29.0891 2.9875 36.8404 2.9875 44.5916 3.0375ZM21.5941 8.035C12.6554 8.0925 4.90913 18.1113 9.16413 27.5175C11.2816 32.1975 16.1816 35.435 21.4004 35.5338C29.1104 35.5825 36.8191 35.5825 44.5291 35.5338C53.1966 35.37 60.5604 25.9575 57.0829 16.8175C55.1579 11.7563 50.0641 8.14125 44.5279 8.03625C36.8841 7.9875 29.2391 8.035 21.5941 8.035Z" fill="#2A2929"/>
<path d="M44.3516 34.3038C51.2656 34.3038 56.8704 28.6989 56.8704 21.785C56.8704 14.8711 51.2656 9.26625 44.3516 9.26625C37.4377 9.26625 31.8329 14.8711 31.8329 21.785C31.8329 28.6989 37.4377 34.3038 44.3516 34.3038Z" fill="#2A2929"/>
</svg>
