<svg width="65" height="43" viewBox="0 0 65 43" fill="none" xmlns="http://www.w3.org/2000/svg">
<rect x="2.96899" y="2.73499" width="60" height="38" rx="19" fill="#00BFFF" stroke="#4B8092" stroke-width="4"/>
<path d="M24.2465 3.10872C27.6403 3.09372 39.2653 3.18122 41.6865 3.10872C69.2865 2.28122 70.3878 41.4125 41.6865 40.6375C37.3265 40.6562 25.6965 40.5575 24.2465 40.6375C11.2978 41.3525 2.94651 32.11 3.00026 21.5475C3.05276 10.9837 12.4128 1.89747 24.2465 3.10872ZM34.099 21.8725C34.2778 15.1687 28.269 9.25247 21.5803 9.35372C12.4428 9.49247 8.47776 17.7287 9.06026 23.0375C9.84151 30.1512 15.5515 34.3625 21.5803 34.3925C28.5003 34.425 33.9078 29.0075 34.099 21.8725Z" fill="#2A2929"/>
</svg>
