<svg width="48" height="48" viewBox="0 0 48 48" fill="none" xmlns="http://www.w3.org/2000/svg">
<mask id="path-1-inside-1_88_272" fill="white">
<path d="M43.7997 7.81492e-05H10.1999C9.65193 -0.00308379 9.10859 0.0897331 8.60094 0.273229C8.09329 0.456725 7.63127 0.727306 7.24127 1.06952C6.85126 1.41174 6.54091 1.81889 6.32792 2.26773C6.11494 2.71656 6.0035 3.19829 5.99996 3.68541V8.00008H2.99998C2.20434 8.00008 1.44128 8.28103 0.878675 8.78113C0.316069 9.28122 0 9.9595 0 10.6667C0 11.374 0.316069 12.0523 0.878675 12.5524C1.44128 13.0525 2.20434 13.3334 2.99998 13.3334H5.99996V21.3334H2.99998C2.20434 21.3334 1.44128 21.6144 0.878675 22.1145C0.316069 22.6146 0 23.2928 0 24.0001C0 24.7073 0.316069 25.3856 0.878675 25.8857C1.44128 26.3858 2.20434 26.6667 2.99998 26.6667H5.99996V34.6667H2.99998C2.20434 34.6667 1.44128 34.9477 0.878675 35.4478C0.316069 35.9479 0 36.6262 0 37.3334C0 38.0407 0.316069 38.7189 0.878675 39.219C1.44128 39.7191 2.20434 40.0001 2.99998 40.0001H5.99996V44.1067C5.98687 45.1154 6.41952 46.0883 7.20491 46.8163C7.99029 47.5444 9.06571 47.9694 10.1999 48.0001H43.7997C44.934 47.9694 46.0094 47.5444 46.7948 46.8163C47.5802 46.0883 48.0128 45.1154 47.9997 44.1067V3.81341C48.0101 2.81306 47.5738 1.84987 46.7865 1.13503C45.9992 0.420185 44.9251 0.0120373 43.7997 7.81492e-05ZM13.4999 41.3334C12.8308 41.3337 12.1702 41.1995 11.5676 40.9409C10.965 40.6823 10.4359 40.306 10.0199 39.8401C10.5991 39.6532 11.0995 39.3124 11.4531 38.8639C11.8067 38.4155 11.9964 37.8811 11.9964 37.3334C11.9964 36.7858 11.8067 36.2514 11.4531 35.8029C11.0995 35.3544 10.5991 35.0136 10.0199 34.8267C10.4359 34.3608 10.965 33.9845 11.5676 33.7259C12.1702 33.4673 12.8308 33.3331 13.4999 33.3334C14.6934 33.3334 15.838 33.7548 16.6819 34.505C17.5258 35.2551 17.9999 36.2725 17.9999 37.3334C17.9999 38.3943 17.5258 39.4117 16.6819 40.1618C15.838 40.912 14.6934 41.3334 13.4999 41.3334ZM13.4999 28.0001C12.8308 28.0004 12.1702 27.8662 11.5676 27.6076C10.965 27.349 10.4359 26.9727 10.0199 26.5067C10.5991 26.3199 11.0995 25.9791 11.4531 25.5306C11.8067 25.0821 11.9964 24.5477 11.9964 24.0001C11.9964 23.4524 11.8067 22.918 11.4531 22.4696C11.0995 22.0211 10.5991 21.6803 10.0199 21.4934C10.4359 21.0275 10.965 20.6512 11.5676 20.3926C12.1702 20.134 12.8308 19.9998 13.4999 20.0001C14.6934 20.0001 15.838 20.4215 16.6819 21.1717C17.5258 21.9218 17.9999 22.9392 17.9999 24.0001C17.9999 25.0609 17.5258 26.0784 16.6819 26.8285C15.838 27.5787 14.6934 28.0001 13.4999 28.0001ZM13.4999 14.6667C12.8308 14.667 12.1702 14.5328 11.5676 14.2743C10.965 14.0157 10.4359 13.6393 10.0199 13.1734C10.5991 12.9866 11.0995 12.6457 11.4531 12.1973C11.8067 11.7488 11.9964 11.2144 11.9964 10.6667C11.9964 10.1191 11.8067 9.5847 11.4531 9.13623C11.0995 8.68775 10.5991 8.34693 10.0199 8.16008C10.4359 7.69415 10.965 7.31783 11.5676 7.05923C12.1702 6.80064 12.8308 6.66647 13.4999 6.66675C14.6934 6.66675 15.838 7.08817 16.6819 7.83832C17.5258 8.58846 17.9999 9.60588 17.9999 10.6667C17.9999 11.7276 17.5258 12.745 16.6819 13.4952C15.838 14.2453 14.6934 14.6667 13.4999 14.6667ZM41.6277 24.7494C41.3969 25.3361 41.0437 25.8789 40.5868 26.3494C40.1472 26.7971 39.6091 27.1601 39.0058 27.4161C38.3893 27.6764 37.7142 27.8086 37.0318 27.8027C36.528 27.813 36.0301 27.7044 35.5888 27.4881C35.1571 27.2651 34.8414 26.9002 34.7098 26.4721C34.3063 26.9039 33.8002 27.2509 33.2278 27.4881C32.6963 27.6944 32.1218 27.7989 31.5418 27.7947C31.0976 27.8039 30.6561 27.7303 30.2458 27.5787C29.8912 27.4426 29.5747 27.2387 29.3188 26.9814C29.0652 26.7206 28.8761 26.4154 28.7638 26.0854C28.6364 25.7203 28.5737 25.3397 28.5778 24.9574C28.5796 24.5729 28.6371 24.1902 28.7488 23.8187C28.8663 23.4286 29.0407 23.0539 29.2678 22.7041C29.5045 22.3372 29.794 21.9992 30.1288 21.6987C30.4836 21.3772 30.8876 21.1016 31.3288 20.8801C31.8215 20.6361 32.3479 20.4505 32.8948 20.3281C33.5178 20.1909 34.158 20.1245 34.7998 20.1307C35.3299 20.1231 35.8595 20.1624 36.3808 20.2481C36.8104 20.3245 37.2312 20.4361 37.6378 20.5814L36.5098 24.2427C36.3972 24.5769 36.3366 24.9233 36.3298 25.2721C36.32 25.4891 36.3694 25.705 36.4738 25.9014C36.5601 26.0486 36.7042 26.1625 36.8788 26.2214C37.132 26.3024 37.4032 26.3289 37.6702 26.2988C37.9372 26.2686 38.1923 26.1827 38.4148 26.0481C38.7306 25.8566 38.9957 25.6064 39.1918 25.3147C39.4299 24.9661 39.6078 24.5876 39.7198 24.1921C39.8564 23.7291 39.923 23.252 39.9178 22.7734C39.9342 22.0001 39.7707 21.232 39.4378 20.5174C39.1375 19.8891 38.6799 19.33 38.0998 18.8827C37.4953 18.4334 36.794 18.0985 36.0388 17.8987C35.1918 17.671 34.3106 17.5595 33.4258 17.5681C32.4352 17.5585 31.4523 17.7234 30.5338 18.0534C29.6764 18.3634 28.8934 18.8159 28.2268 19.3867C27.5713 19.9567 27.0511 20.6377 26.6968 21.3894C26.3251 22.1751 26.1372 23.0198 26.1448 23.8721C26.1204 24.8473 26.3247 25.8163 26.7448 26.7174C27.1192 27.5022 27.686 28.2028 28.4038 28.7681C29.1281 29.3269 29.9735 29.748 30.8878 30.0054C31.8869 30.2869 32.9297 30.4264 33.9778 30.4187C34.5482 30.4198 35.1181 30.3913 35.6848 30.3334C36.1753 30.2827 36.6621 30.207 37.1428 30.1067C37.5493 30.0183 37.9499 29.9097 38.3428 29.7814C38.6754 29.6693 39 29.5393 39.3148 29.3921C39.4759 29.3009 39.6708 29.2693 39.8578 29.3041C39.9376 29.3249 40.0105 29.3627 40.0701 29.4143C40.1297 29.4659 40.1742 29.5297 40.1998 29.6001L40.6048 30.4747C39.7034 30.9534 38.7337 31.3221 37.7218 31.5707C36.5014 31.8683 35.2402 32.0128 33.9748 32.0001C32.6239 32.012 31.2803 31.8227 29.9998 31.4401C28.8376 31.097 27.763 30.5533 26.8378 29.8401C25.9363 29.133 25.2196 28.2592 24.7379 27.2801C24.2242 26.2049 23.9726 25.0452 23.9999 23.8774C23.9981 23.1835 24.1082 22.4929 24.3269 21.8267C24.5405 21.17 24.8533 20.5421 25.2568 19.9601C25.6643 19.3738 26.1543 18.8361 26.7148 18.3601C27.2854 17.8742 27.9224 17.454 28.6108 17.1094C30.0779 16.3787 31.7321 15.9966 33.4138 16.0001C34.5136 15.9965 35.6064 16.1551 36.6478 16.4694C37.6443 16.7623 38.5725 17.2141 39.3868 17.8027C40.1827 18.3875 40.8317 19.1143 41.2918 19.9361C41.7769 20.8178 42.0195 21.7894 41.9997 22.7707C42.006 23.4445 41.8802 24.1141 41.6277 24.7494Z"/>
</mask>
<path d="M43.7997 7.81492e-05H10.1999C9.65193 -0.00308379 9.10859 0.0897331 8.60094 0.273229C8.09329 0.456725 7.63127 0.727306 7.24127 1.06952C6.85126 1.41174 6.54091 1.81889 6.32792 2.26773C6.11494 2.71656 6.0035 3.19829 5.99996 3.68541V8.00008H2.99998C2.20434 8.00008 1.44128 8.28103 0.878675 8.78113C0.316069 9.28122 0 9.9595 0 10.6667C0 11.374 0.316069 12.0523 0.878675 12.5524C1.44128 13.0525 2.20434 13.3334 2.99998 13.3334H5.99996V21.3334H2.99998C2.20434 21.3334 1.44128 21.6144 0.878675 22.1145C0.316069 22.6146 0 23.2928 0 24.0001C0 24.7073 0.316069 25.3856 0.878675 25.8857C1.44128 26.3858 2.20434 26.6667 2.99998 26.6667H5.99996V34.6667H2.99998C2.20434 34.6667 1.44128 34.9477 0.878675 35.4478C0.316069 35.9479 0 36.6262 0 37.3334C0 38.0407 0.316069 38.7189 0.878675 39.219C1.44128 39.7191 2.20434 40.0001 2.99998 40.0001H5.99996V44.1067C5.98687 45.1154 6.41952 46.0883 7.20491 46.8163C7.99029 47.5444 9.06571 47.9694 10.1999 48.0001H43.7997C44.934 47.9694 46.0094 47.5444 46.7948 46.8163C47.5802 46.0883 48.0128 45.1154 47.9997 44.1067V3.81341C48.0101 2.81306 47.5738 1.84987 46.7865 1.13503C45.9992 0.420185 44.9251 0.0120373 43.7997 7.81492e-05ZM13.4999 41.3334C12.8308 41.3337 12.1702 41.1995 11.5676 40.9409C10.965 40.6823 10.4359 40.306 10.0199 39.8401C10.5991 39.6532 11.0995 39.3124 11.4531 38.8639C11.8067 38.4155 11.9964 37.8811 11.9964 37.3334C11.9964 36.7858 11.8067 36.2514 11.4531 35.8029C11.0995 35.3544 10.5991 35.0136 10.0199 34.8267C10.4359 34.3608 10.965 33.9845 11.5676 33.7259C12.1702 33.4673 12.8308 33.3331 13.4999 33.3334C14.6934 33.3334 15.838 33.7548 16.6819 34.505C17.5258 35.2551 17.9999 36.2725 17.9999 37.3334C17.9999 38.3943 17.5258 39.4117 16.6819 40.1618C15.838 40.912 14.6934 41.3334 13.4999 41.3334ZM13.4999 28.0001C12.8308 28.0004 12.1702 27.8662 11.5676 27.6076C10.965 27.349 10.4359 26.9727 10.0199 26.5067C10.5991 26.3199 11.0995 25.9791 11.4531 25.5306C11.8067 25.0821 11.9964 24.5477 11.9964 24.0001C11.9964 23.4524 11.8067 22.918 11.4531 22.4696C11.0995 22.0211 10.5991 21.6803 10.0199 21.4934C10.4359 21.0275 10.965 20.6512 11.5676 20.3926C12.1702 20.134 12.8308 19.9998 13.4999 20.0001C14.6934 20.0001 15.838 20.4215 16.6819 21.1717C17.5258 21.9218 17.9999 22.9392 17.9999 24.0001C17.9999 25.0609 17.5258 26.0784 16.6819 26.8285C15.838 27.5787 14.6934 28.0001 13.4999 28.0001ZM13.4999 14.6667C12.8308 14.667 12.1702 14.5328 11.5676 14.2743C10.965 14.0157 10.4359 13.6393 10.0199 13.1734C10.5991 12.9866 11.0995 12.6457 11.4531 12.1973C11.8067 11.7488 11.9964 11.2144 11.9964 10.6667C11.9964 10.1191 11.8067 9.5847 11.4531 9.13623C11.0995 8.68775 10.5991 8.34693 10.0199 8.16008C10.4359 7.69415 10.965 7.31783 11.5676 7.05923C12.1702 6.80064 12.8308 6.66647 13.4999 6.66675C14.6934 6.66675 15.838 7.08817 16.6819 7.83832C17.5258 8.58846 17.9999 9.60588 17.9999 10.6667C17.9999 11.7276 17.5258 12.745 16.6819 13.4952C15.838 14.2453 14.6934 14.6667 13.4999 14.6667ZM41.6277 24.7494C41.3969 25.3361 41.0437 25.8789 40.5868 26.3494C40.1472 26.7971 39.6091 27.1601 39.0058 27.4161C38.3893 27.6764 37.7142 27.8086 37.0318 27.8027C36.528 27.813 36.0301 27.7044 35.5888 27.4881C35.1571 27.2651 34.8414 26.9002 34.7098 26.4721C34.3063 26.9039 33.8002 27.2509 33.2278 27.4881C32.6963 27.6944 32.1218 27.7989 31.5418 27.7947C31.0976 27.8039 30.6561 27.7303 30.2458 27.5787C29.8912 27.4426 29.5747 27.2387 29.3188 26.9814C29.0652 26.7206 28.8761 26.4154 28.7638 26.0854C28.6364 25.7203 28.5737 25.3397 28.5778 24.9574C28.5796 24.5729 28.6371 24.1902 28.7488 23.8187C28.8663 23.4286 29.0407 23.0539 29.2678 22.7041C29.5045 22.3372 29.794 21.9992 30.1288 21.6987C30.4836 21.3772 30.8876 21.1016 31.3288 20.8801C31.8215 20.6361 32.3479 20.4505 32.8948 20.3281C33.5178 20.1909 34.158 20.1245 34.7998 20.1307C35.3299 20.1231 35.8595 20.1624 36.3808 20.2481C36.8104 20.3245 37.2312 20.4361 37.6378 20.5814L36.5098 24.2427C36.3972 24.5769 36.3366 24.9233 36.3298 25.2721C36.32 25.4891 36.3694 25.705 36.4738 25.9014C36.5601 26.0486 36.7042 26.1625 36.8788 26.2214C37.132 26.3024 37.4032 26.3289 37.6702 26.2988C37.9372 26.2686 38.1923 26.1827 38.4148 26.0481C38.7306 25.8566 38.9957 25.6064 39.1918 25.3147C39.4299 24.9661 39.6078 24.5876 39.7198 24.1921C39.8564 23.7291 39.923 23.252 39.9178 22.7734C39.9342 22.0001 39.7707 21.232 39.4378 20.5174C39.1375 19.8891 38.6799 19.33 38.0998 18.8827C37.4953 18.4334 36.794 18.0985 36.0388 17.8987C35.1918 17.671 34.3106 17.5595 33.4258 17.5681C32.4352 17.5585 31.4523 17.7234 30.5338 18.0534C29.6764 18.3634 28.8934 18.8159 28.2268 19.3867C27.5713 19.9567 27.0511 20.6377 26.6968 21.3894C26.3251 22.1751 26.1372 23.0198 26.1448 23.8721C26.1204 24.8473 26.3247 25.8163 26.7448 26.7174C27.1192 27.5022 27.686 28.2028 28.4038 28.7681C29.1281 29.3269 29.9735 29.748 30.8878 30.0054C31.8869 30.2869 32.9297 30.4264 33.9778 30.4187C34.5482 30.4198 35.1181 30.3913 35.6848 30.3334C36.1753 30.2827 36.6621 30.207 37.1428 30.1067C37.5493 30.0183 37.9499 29.9097 38.3428 29.7814C38.6754 29.6693 39 29.5393 39.3148 29.3921C39.4759 29.3009 39.6708 29.2693 39.8578 29.3041C39.9376 29.3249 40.0105 29.3627 40.0701 29.4143C40.1297 29.4659 40.1742 29.5297 40.1998 29.6001L40.6048 30.4747C39.7034 30.9534 38.7337 31.3221 37.7218 31.5707C36.5014 31.8683 35.2402 32.0128 33.9748 32.0001C32.6239 32.012 31.2803 31.8227 29.9998 31.4401C28.8376 31.097 27.763 30.5533 26.8378 29.8401C25.9363 29.133 25.2196 28.2592 24.7379 27.2801C24.2242 26.2049 23.9726 25.0452 23.9999 23.8774C23.9981 23.1835 24.1082 22.4929 24.3269 21.8267C24.5405 21.17 24.8533 20.5421 25.2568 19.9601C25.6643 19.3738 26.1543 18.8361 26.7148 18.3601C27.2854 17.8742 27.9224 17.454 28.6108 17.1094C30.0779 16.3787 31.7321 15.9966 33.4138 16.0001C34.5136 15.9965 35.6064 16.1551 36.6478 16.4694C37.6443 16.7623 38.5725 17.2141 39.3868 17.8027C40.1827 18.3875 40.8317 19.1143 41.2918 19.9361C41.7769 20.8178 42.0195 21.7894 41.9997 22.7707C42.006 23.4445 41.8802 24.1141 41.6277 24.7494Z" fill="#3B4B53" stroke="#657B7D" stroke-opacity="0.5" stroke-width="2" mask="url(#path-1-inside-1_88_272)"/>
<path d="M32.9668 21.9252C32.5463 22.0968 32.1689 22.3416 31.8568 22.6452C31.542 22.9498 31.291 23.3021 31.1158 23.6852C30.9338 24.0712 30.84 24.4854 30.8398 24.9039C30.8159 25.255 30.9316 25.6024 31.1668 25.8852C31.2851 26.0046 31.4326 26.0981 31.598 26.1587C31.7634 26.2193 31.9423 26.2452 32.1208 26.2346C32.331 26.2335 32.5399 26.2066 32.7418 26.1546C32.9609 26.0966 33.1648 26.0005 33.3418 25.8719C33.548 25.7212 33.7244 25.5409 33.8638 25.3386C34.04 25.0783 34.1714 24.7961 34.2538 24.5012L35.1238 21.7226C34.8642 21.6825 34.6013 21.662 34.3378 21.6612C33.8644 21.6576 33.3961 21.7478 32.9668 21.9252Z" fill="#3B4B53"/>
<path d="M34.3338 22.1611H34.3367C34.3778 22.1612 34.4188 22.1648 34.4598 22.166L33.7762 24.3516L33.7742 24.3594L33.7723 24.3662C33.7052 24.6064 33.5976 24.8388 33.452 25.0547C33.3458 25.2087 33.2099 25.349 33.0477 25.4678C32.9233 25.558 32.7771 25.6271 32.617 25.6699C32.4554 25.7115 32.2873 25.7335 32.118 25.7344H32.1043L32.0906 25.7354C31.9799 25.7419 31.87 25.7259 31.7703 25.6895C31.6778 25.6556 31.599 25.6054 31.5369 25.5469C31.3902 25.3619 31.3244 25.1471 31.3387 24.9375L31.3397 24.9209V24.9043C31.3398 24.561 31.417 24.2191 31.5682 23.8984L31.5701 23.8936C31.7184 23.5693 31.9331 23.2679 32.2049 23.0049L32.2059 23.0039C32.4699 22.747 32.7925 22.537 33.1561 22.3887L33.158 22.3877C33.5243 22.2363 33.926 22.158 34.3338 22.1611Z" stroke="#657B7D" stroke-opacity="0.5"/>
</svg>
