<svg width="49" height="48" viewBox="0 0 49 48" fill="none" xmlns="http://www.w3.org/2000/svg">
<path d="M38.8229 29.3078C38.8229 30.0093 38.2523 30.5781 37.5484 30.5781H32.207C31.5031 30.5781 30.9324 30.0095 30.9324 29.3078V26.8843H17.4672V29.3078C17.4672 30.0093 16.8966 30.5781 16.1926 30.5781H10.8512C10.1474 30.5781 9.57669 30.0095 9.57669 29.3078V26.8843H2.77132V45.835C2.77132 47.0307 3.74381 48 4.94345 48H43.4562C44.6558 48 45.6283 47.0307 45.6283 45.835V26.8843H38.8229V29.3078Z" fill="#3B4B53"/>
<path d="M9.07698 27.3843V29.3081C9.07713 30.2873 9.87309 31.0786 10.8514 31.0786H16.1922C17.1707 31.0786 17.9675 30.2872 17.9676 29.3081V27.3843H30.4324V29.3081C30.4326 30.2873 31.2286 31.0786 32.2069 31.0786H37.5487C38.527 31.0785 39.3229 30.2871 39.3231 29.3081V27.3843H45.1287V45.8354C45.1285 46.7532 44.3808 47.4995 43.4559 47.4995H4.94319C4.01839 47.4994 3.27154 46.7531 3.27132 45.8354V27.3843H9.07698Z" stroke="#657B7D" stroke-opacity="0.5"/>
<path d="M46.0276 9.01106H33.5398V2.10004C33.5398 0.940293 32.5964 0 31.4327 0H16.967C15.8033 0 14.8599 0.940293 14.8599 2.10004V9.01106H2.37214C1.17251 9.01106 0.200012 9.98034 0.200012 11.176V23.2501H9.5769V20.8861C9.5769 20.1845 10.1475 19.6158 10.8514 19.6158H16.1928C16.8967 19.6158 17.4674 20.1845 17.4674 20.8861V23.2501H30.9327V20.8861C30.9327 20.1845 31.5033 19.6158 32.2073 19.6158H37.5487C38.2525 19.6158 38.8232 20.1845 38.8232 20.8861V23.2501H48.2V11.176C48.1998 9.98034 47.2273 9.01106 46.0276 9.01106ZM19.074 4.20008H29.3257V9.01106H19.074V4.20008Z" fill="#3B4B53"/>
<path d="M16.9666 0.5H31.4324C32.3214 0.5 33.0396 1.21775 33.0399 2.09961V9.51074H46.0272C46.9522 9.51074 47.6997 10.2579 47.7 11.1758V22.75H39.3231V20.8857C39.3229 19.9066 38.5269 19.1162 37.5486 19.1162H32.2068C31.2286 19.1164 30.4326 19.9068 30.4324 20.8857V22.75H17.9676V20.8857C17.9674 19.9067 17.1713 19.1164 16.1932 19.1162H10.8514C9.87301 19.1162 9.07714 19.9067 9.07697 20.8857V22.75H0.700012V11.1758C0.700129 10.258 1.44702 9.51088 2.37189 9.51074H15.3602V2.09961C15.3604 1.21787 16.0778 0.500192 16.9666 0.5ZM18.574 9.51074H29.826V3.7002H18.574V9.51074Z" stroke="#657B7D" stroke-opacity="0.5"/>
</svg>
