<svg width="54" height="52" viewBox="0 0 54 52" fill="none" xmlns="http://www.w3.org/2000/svg">
<path d="M6.48334 50C6.48334 50 2.4 50 2.4 46C2.4 42 6.48334 30 26.9 30C47.3167 30 51.4 42 51.4 46C51.4 50 47.3167 50 47.3167 50H6.48334ZM26.9 26C30.1489 26 33.2647 24.7357 35.5621 22.4853C37.8594 20.2348 39.15 17.1826 39.15 14C39.15 10.8174 37.8594 7.76516 35.5621 5.51472C33.2647 3.26428 30.1489 2 26.9 2C23.6511 2 20.5353 3.26428 18.2379 5.51472C15.9406 7.76516 14.65 10.8174 14.65 14C14.65 17.1826 15.9406 20.2348 18.2379 22.4853C20.5353 24.7357 23.6511 26 26.9 26Z" fill="url(#paint0_linear_84_251)"/>
<path d="M26.9 29C37.3133 29 43.7097 32.0659 47.5064 35.7852C51.2752 39.477 52.4 43.7366 52.4 46C52.4 47.1793 52.0957 48.1297 51.5885 48.875C51.0863 49.613 50.4258 50.0911 49.7984 50.3984C49.1745 50.704 48.5627 50.8518 48.1158 50.9248C47.8901 50.9617 47.6998 50.9806 47.5621 50.9902C47.4931 50.9951 47.4366 50.9967 47.3951 50.998C47.3745 50.9987 47.3575 50.9998 47.3443 51H47.318L47.317 50V51H6.48301V50C6.48301 51 6.48254 51 6.48203 51H6.45567C6.44254 50.9998 6.42554 50.9987 6.40488 50.998C6.36342 50.9967 6.30691 50.9951 6.23789 50.9902C6.10022 50.9806 5.90993 50.9617 5.68418 50.9248C5.23729 50.8518 4.62552 50.704 4.00156 50.3984C3.37418 50.0911 2.71375 49.613 2.21152 48.875C1.70433 48.1297 1.4 47.1793 1.4 46C1.4 43.7366 2.5248 39.477 6.29356 35.7852C10.0903 32.0659 16.4867 29 26.9 29ZM26.9 1C30.4075 1 33.7759 2.36516 36.2623 4.80078C38.7491 7.23705 40.15 10.5457 40.15 14C40.15 17.4543 38.7491 20.763 36.2623 23.1992C33.7759 25.6348 30.4075 27 26.9 27C23.3925 27 20.0241 25.6348 17.5377 23.1992C15.0509 20.763 13.65 17.4543 13.65 14C13.65 10.5457 15.0509 7.23705 17.5377 4.80078C20.0241 2.36516 23.3925 1 26.9 1Z" stroke="url(#paint1_linear_84_251)" stroke-opacity="0.8" stroke-width="2"/>
<defs>
<linearGradient id="paint0_linear_84_251" x1="26.9" y1="2" x2="26.9" y2="50" gradientUnits="userSpaceOnUse">
<stop offset="0.4" stop-color="#567AC3"/>
<stop offset="1" stop-color="#D9E1F0"/>
</linearGradient>
<linearGradient id="paint1_linear_84_251" x1="26.9" y1="2" x2="26.9" y2="50" gradientUnits="userSpaceOnUse">
<stop offset="0.35" stop-color="#E4F8FF"/>
<stop offset="0.75" stop-color="#638DCC"/>
</linearGradient>
</defs>
</svg>
