<svg width="53" height="52" viewBox="0 0 53 52" fill="none" xmlns="http://www.w3.org/2000/svg">
<path d="M40.8229 31.3078C40.8229 32.0093 40.2523 32.5781 39.5484 32.5781H34.207C33.5031 32.5781 32.9324 32.0095 32.9324 31.3078V28.8843H19.4672V31.3078C19.4672 32.0093 18.8966 32.5781 18.1926 32.5781H12.8512C12.1474 32.5781 11.5767 32.0095 11.5767 31.3078V28.8843H4.77132V47.835C4.77132 49.0307 5.74381 50 6.94345 50H45.4562C46.6558 50 47.6283 49.0307 47.6283 47.835V28.8843H40.8229V31.3078Z" fill="url(#paint0_linear_88_253)"/>
<path d="M12.577 27.8843V31.3081C12.5771 31.4541 12.6967 31.5786 12.8514 31.5786H18.1922C18.3469 31.5786 18.4675 31.4541 18.4676 31.3081V27.8843H33.9324V31.3081C33.9326 31.4541 34.0523 31.5786 34.2069 31.5786H39.5487C39.7032 31.5785 39.8229 31.4541 39.8231 31.3081V27.8843H48.6287V47.8354C48.6285 49.5863 47.2045 50.9995 45.4559 50.9995H6.94319C5.19466 50.9994 3.77154 49.5862 3.77132 47.8354V27.8843H12.577Z" stroke="url(#paint1_linear_88_253)" stroke-opacity="0.8" stroke-width="2"/>
<path d="M48.0276 11.0111H35.5398V4.10004C35.5398 2.94029 34.5964 2 33.4327 2H18.967C17.8033 2 16.8599 2.94029 16.8599 4.10004V11.0111H4.37214C3.17251 11.0111 2.20001 11.9803 2.20001 13.176V25.2501H11.5769V22.8861C11.5769 22.1845 12.1475 21.6158 12.8514 21.6158H18.1928C18.8967 21.6158 19.4674 22.1845 19.4674 22.8861V25.2501H32.9327V22.8861C32.9327 22.1845 33.5033 21.6158 34.2073 21.6158H39.5487C40.2525 21.6158 40.8232 22.1845 40.8232 22.8861V25.2501H50.2V13.176C50.1998 11.9803 49.2273 11.0111 48.0276 11.0111ZM21.074 6.20008H31.3257V11.0111H21.074V6.20008Z" fill="url(#paint2_linear_88_253)"/>
<path d="M33.4324 1C35.1452 1 36.5396 2.38468 36.5399 4.09961V10.0107H48.0272C49.776 10.0107 51.1997 11.4249 51.2 13.1758V26.25H39.8231V22.8857C39.8229 22.7399 39.7033 22.6162 39.5486 22.6162H34.2068C34.0523 22.6164 33.9326 22.74 33.9324 22.8857V26.25H18.4676V22.8857C18.4674 22.74 18.3477 22.6164 18.1932 22.6162H12.8514C12.6967 22.6162 12.5771 22.7398 12.577 22.8857V26.25H1.20001V13.1758C1.20013 11.4249 2.62329 10.0109 4.37189 10.0107H15.8602V4.09961C15.8604 2.3848 17.254 1.00019 18.9666 1H33.4324ZM22.074 10.0107H30.326V7.2002H22.074V10.0107Z" stroke="url(#paint3_linear_88_253)" stroke-opacity="0.8" stroke-width="2"/>
<defs>
<linearGradient id="paint0_linear_88_253" x1="26.1998" y1="28.8843" x2="26.1998" y2="50" gradientUnits="userSpaceOnUse">
<stop offset="0.4" stop-color="#567AC3"/>
<stop offset="1" stop-color="#D9E1F0"/>
</linearGradient>
<linearGradient id="paint1_linear_88_253" x1="26.1998" y1="28.8843" x2="26.1998" y2="50" gradientUnits="userSpaceOnUse">
<stop offset="0.35" stop-color="#E4F8FF"/>
<stop offset="0.75" stop-color="#638DCC"/>
</linearGradient>
<linearGradient id="paint2_linear_88_253" x1="26.2" y1="2" x2="26.2" y2="25.2501" gradientUnits="userSpaceOnUse">
<stop offset="0.4" stop-color="#567AC3"/>
<stop offset="1" stop-color="#D9E1F0"/>
</linearGradient>
<linearGradient id="paint3_linear_88_253" x1="26.2" y1="2" x2="26.2" y2="25.2501" gradientUnits="userSpaceOnUse">
<stop offset="0.35" stop-color="#E4F8FF"/>
<stop offset="0.75" stop-color="#638DCC"/>
</linearGradient>
</defs>
</svg>
