<svg width="52" height="52" viewBox="0 0 52 52" fill="none" xmlns="http://www.w3.org/2000/svg">
<mask id="path-1-outside-1_88_272" maskUnits="userSpaceOnUse" x="0" y="0" width="52" height="52" fill="black">
<rect fill="white" width="52" height="52"/>
<path d="M45.7997 2.00008H12.1999C11.6519 1.99692 11.1086 2.08973 10.6009 2.27323C10.0933 2.45673 9.63127 2.72731 9.24127 3.06952C8.85126 3.41174 8.54091 3.81889 8.32792 4.26773C8.11494 4.71656 8.0035 5.19829 7.99996 5.68541V10.0001H4.99998C4.20434 10.0001 3.44128 10.281 2.87867 10.7811C2.31607 11.2812 2 11.9595 2 12.6667C2 13.374 2.31607 14.0523 2.87867 14.5524C3.44128 15.0525 4.20434 15.3334 4.99998 15.3334H7.99996V23.3334H4.99998C4.20434 23.3334 3.44128 23.6144 2.87867 24.1145C2.31607 24.6146 2 25.2928 2 26.0001C2 26.7073 2.31607 27.3856 2.87867 27.8857C3.44128 28.3858 4.20434 28.6667 4.99998 28.6667H7.99996V36.6667H4.99998C4.20434 36.6667 3.44128 36.9477 2.87867 37.4478C2.31607 37.9479 2 38.6262 2 39.3334C2 40.0407 2.31607 40.7189 2.87867 41.219C3.44128 41.7191 4.20434 42.0001 4.99998 42.0001H7.99996V46.1067C7.98687 47.1154 8.41952 48.0883 9.20491 48.8163C9.99029 49.5444 11.0657 49.9694 12.1999 50.0001H45.7997C46.934 49.9694 48.0094 49.5444 48.7948 48.8163C49.5802 48.0883 50.0128 47.1154 49.9997 46.1067V5.81341C50.0101 4.81306 49.5738 3.84987 48.7865 3.13503C47.9992 2.42018 46.9251 2.01204 45.7997 2.00008ZM15.4999 43.3334C14.8308 43.3337 14.1702 43.1995 13.5676 42.9409C12.965 42.6823 12.4359 42.306 12.0199 41.8401C12.5991 41.6532 13.0995 41.3124 13.4531 40.8639C13.8067 40.4155 13.9964 39.8811 13.9964 39.3334C13.9964 38.7858 13.8067 38.2514 13.4531 37.8029C13.0995 37.3544 12.5991 37.0136 12.0199 36.8267C12.4359 36.3608 12.965 35.9845 13.5676 35.7259C14.1702 35.4673 14.8308 35.3331 15.4999 35.3334C16.6934 35.3334 17.838 35.7548 18.6819 36.505C19.5258 37.2551 19.9999 38.2725 19.9999 39.3334C19.9999 40.3943 19.5258 41.4117 18.6819 42.1618C17.838 42.912 16.6934 43.3334 15.4999 43.3334ZM15.4999 30.0001C14.8308 30.0004 14.1702 29.8662 13.5676 29.6076C12.965 29.349 12.4359 28.9727 12.0199 28.5067C12.5991 28.3199 13.0995 27.9791 13.4531 27.5306C13.8067 27.0821 13.9964 26.5477 13.9964 26.0001C13.9964 25.4524 13.8067 24.918 13.4531 24.4696C13.0995 24.0211 12.5991 23.6803 12.0199 23.4934C12.4359 23.0275 12.965 22.6512 13.5676 22.3926C14.1702 22.134 14.8308 21.9998 15.4999 22.0001C16.6934 22.0001 17.838 22.4215 18.6819 23.1717C19.5258 23.9218 19.9999 24.9392 19.9999 26.0001C19.9999 27.0609 19.5258 28.0784 18.6819 28.8285C17.838 29.5787 16.6934 30.0001 15.4999 30.0001ZM15.4999 16.6667C14.8308 16.667 14.1702 16.5328 13.5676 16.2743C12.965 16.0157 12.4359 15.6393 12.0199 15.1734C12.5991 14.9866 13.0995 14.6457 13.4531 14.1973C13.8067 13.7488 13.9964 13.2144 13.9964 12.6667C13.9964 12.1191 13.8067 11.5847 13.4531 11.1362C13.0995 10.6877 12.5991 10.3469 12.0199 10.1601C12.4359 9.69415 12.965 9.31783 13.5676 9.05923C14.1702 8.80064 14.8308 8.66647 15.4999 8.66675C16.6934 8.66675 17.838 9.08817 18.6819 9.83832C19.5258 10.5885 19.9999 11.6059 19.9999 12.6667C19.9999 13.7276 19.5258 14.745 18.6819 15.4952C17.838 16.2453 16.6934 16.6667 15.4999 16.6667ZM43.6277 26.7494C43.3969 27.3361 43.0437 27.8789 42.5868 28.3494C42.1472 28.7971 41.6091 29.1601 41.0058 29.4161C40.3893 29.6764 39.7142 29.8086 39.0318 29.8027C38.528 29.813 38.0301 29.7044 37.5888 29.4881C37.1571 29.2651 36.8414 28.9002 36.7098 28.4721C36.3063 28.9039 35.8002 29.2509 35.2278 29.4881C34.6963 29.6944 34.1218 29.7989 33.5418 29.7947C33.0976 29.8039 32.6561 29.7303 32.2458 29.5787C31.8912 29.4426 31.5747 29.2387 31.3188 28.9814C31.0652 28.7206 30.8761 28.4154 30.7638 28.0854C30.6364 27.7203 30.5737 27.3397 30.5778 26.9574C30.5796 26.5729 30.6371 26.1902 30.7488 25.8187C30.8663 25.4286 31.0407 25.0539 31.2678 24.7041C31.5045 24.3372 31.794 23.9992 32.1288 23.6987C32.4836 23.3772 32.8876 23.1016 33.3288 22.8801C33.8215 22.6361 34.3479 22.4505 34.8948 22.3281C35.5178 22.1909 36.158 22.1245 36.7998 22.1307C37.3299 22.1231 37.8595 22.1624 38.3808 22.2481C38.8104 22.3245 39.2312 22.4361 39.6378 22.5814L38.5098 26.2427C38.3972 26.5769 38.3366 26.9233 38.3298 27.2721C38.32 27.4891 38.3694 27.705 38.4738 27.9014C38.5601 28.0486 38.7042 28.1625 38.8788 28.2214C39.132 28.3024 39.4032 28.3289 39.6702 28.2988C39.9372 28.2686 40.1923 28.1827 40.4148 28.0481C40.7306 27.8566 40.9957 27.6064 41.1918 27.3147C41.4299 26.9661 41.6078 26.5876 41.7198 26.1921C41.8564 25.7291 41.923 25.252 41.9178 24.7734C41.9342 24.0001 41.7707 23.232 41.4378 22.5174C41.1375 21.8891 40.6799 21.33 40.0998 20.8827C39.4953 20.4334 38.794 20.0985 38.0388 19.8987C37.1918 19.671 36.3106 19.5595 35.4258 19.5681C34.4352 19.5585 33.4523 19.7234 32.5338 20.0534C31.6764 20.3634 30.8934 20.8159 30.2268 21.3867C29.5713 21.9567 29.0511 22.6377 28.6968 23.3894C28.3251 24.1751 28.1372 25.0198 28.1448 25.8721C28.1204 26.8473 28.3247 27.8163 28.7448 28.7174C29.1192 29.5022 29.686 30.2028 30.4038 30.7681C31.1281 31.3269 31.9735 31.748 32.8878 32.0054C33.8869 32.2869 34.9297 32.4264 35.9778 32.4187C36.5482 32.4198 37.1181 32.3913 37.6848 32.3334C38.1753 32.2827 38.6621 32.207 39.1428 32.1067C39.5493 32.0183 39.9499 31.9097 40.3428 31.7814C40.6754 31.6693 41 31.5393 41.3148 31.3921C41.4759 31.3009 41.6708 31.2693 41.8578 31.3041C41.9376 31.3249 42.0105 31.3627 42.0701 31.4143C42.1297 31.4659 42.1742 31.5297 42.1998 31.6001L42.6048 32.4747C41.7034 32.9534 40.7337 33.3221 39.7218 33.5707C38.5014 33.8683 37.2402 34.0128 35.9748 34.0001C34.6239 34.012 33.2803 33.8227 31.9998 33.4401C30.8376 33.097 29.763 32.5533 28.8378 31.8401C27.9363 31.133 27.2196 30.2592 26.7379 29.2801C26.2242 28.2049 25.9726 27.0452 25.9999 25.8774C25.9981 25.1835 26.1082 24.4929 26.3269 23.8267C26.5405 23.17 26.8533 22.5421 27.2568 21.9601C27.6643 21.3738 28.1543 20.8361 28.7148 20.3601C29.2854 19.8742 29.9224 19.454 30.6108 19.1094C32.0779 18.3787 33.7321 17.9966 35.4138 18.0001C36.5136 17.9965 37.6064 18.1551 38.6478 18.4694C39.6443 18.7623 40.5725 19.2141 41.3868 19.8027C42.1827 20.3875 42.8317 21.1143 43.2918 21.9361C43.7769 22.8178 44.0195 23.7894 43.9997 24.7707C44.006 25.4445 43.8802 26.1141 43.6277 26.7494Z"/>
</mask>
<path d="M45.7997 2.00008H12.1999C11.6519 1.99692 11.1086 2.08973 10.6009 2.27323C10.0933 2.45673 9.63127 2.72731 9.24127 3.06952C8.85126 3.41174 8.54091 3.81889 8.32792 4.26773C8.11494 4.71656 8.0035 5.19829 7.99996 5.68541V10.0001H4.99998C4.20434 10.0001 3.44128 10.281 2.87867 10.7811C2.31607 11.2812 2 11.9595 2 12.6667C2 13.374 2.31607 14.0523 2.87867 14.5524C3.44128 15.0525 4.20434 15.3334 4.99998 15.3334H7.99996V23.3334H4.99998C4.20434 23.3334 3.44128 23.6144 2.87867 24.1145C2.31607 24.6146 2 25.2928 2 26.0001C2 26.7073 2.31607 27.3856 2.87867 27.8857C3.44128 28.3858 4.20434 28.6667 4.99998 28.6667H7.99996V36.6667H4.99998C4.20434 36.6667 3.44128 36.9477 2.87867 37.4478C2.31607 37.9479 2 38.6262 2 39.3334C2 40.0407 2.31607 40.7189 2.87867 41.219C3.44128 41.7191 4.20434 42.0001 4.99998 42.0001H7.99996V46.1067C7.98687 47.1154 8.41952 48.0883 9.20491 48.8163C9.99029 49.5444 11.0657 49.9694 12.1999 50.0001H45.7997C46.934 49.9694 48.0094 49.5444 48.7948 48.8163C49.5802 48.0883 50.0128 47.1154 49.9997 46.1067V5.81341C50.0101 4.81306 49.5738 3.84987 48.7865 3.13503C47.9992 2.42018 46.9251 2.01204 45.7997 2.00008ZM15.4999 43.3334C14.8308 43.3337 14.1702 43.1995 13.5676 42.9409C12.965 42.6823 12.4359 42.306 12.0199 41.8401C12.5991 41.6532 13.0995 41.3124 13.4531 40.8639C13.8067 40.4155 13.9964 39.8811 13.9964 39.3334C13.9964 38.7858 13.8067 38.2514 13.4531 37.8029C13.0995 37.3544 12.5991 37.0136 12.0199 36.8267C12.4359 36.3608 12.965 35.9845 13.5676 35.7259C14.1702 35.4673 14.8308 35.3331 15.4999 35.3334C16.6934 35.3334 17.838 35.7548 18.6819 36.505C19.5258 37.2551 19.9999 38.2725 19.9999 39.3334C19.9999 40.3943 19.5258 41.4117 18.6819 42.1618C17.838 42.912 16.6934 43.3334 15.4999 43.3334ZM15.4999 30.0001C14.8308 30.0004 14.1702 29.8662 13.5676 29.6076C12.965 29.349 12.4359 28.9727 12.0199 28.5067C12.5991 28.3199 13.0995 27.9791 13.4531 27.5306C13.8067 27.0821 13.9964 26.5477 13.9964 26.0001C13.9964 25.4524 13.8067 24.918 13.4531 24.4696C13.0995 24.0211 12.5991 23.6803 12.0199 23.4934C12.4359 23.0275 12.965 22.6512 13.5676 22.3926C14.1702 22.134 14.8308 21.9998 15.4999 22.0001C16.6934 22.0001 17.838 22.4215 18.6819 23.1717C19.5258 23.9218 19.9999 24.9392 19.9999 26.0001C19.9999 27.0609 19.5258 28.0784 18.6819 28.8285C17.838 29.5787 16.6934 30.0001 15.4999 30.0001ZM15.4999 16.6667C14.8308 16.667 14.1702 16.5328 13.5676 16.2743C12.965 16.0157 12.4359 15.6393 12.0199 15.1734C12.5991 14.9866 13.0995 14.6457 13.4531 14.1973C13.8067 13.7488 13.9964 13.2144 13.9964 12.6667C13.9964 12.1191 13.8067 11.5847 13.4531 11.1362C13.0995 10.6877 12.5991 10.3469 12.0199 10.1601C12.4359 9.69415 12.965 9.31783 13.5676 9.05923C14.1702 8.80064 14.8308 8.66647 15.4999 8.66675C16.6934 8.66675 17.838 9.08817 18.6819 9.83832C19.5258 10.5885 19.9999 11.6059 19.9999 12.6667C19.9999 13.7276 19.5258 14.745 18.6819 15.4952C17.838 16.2453 16.6934 16.6667 15.4999 16.6667ZM43.6277 26.7494C43.3969 27.3361 43.0437 27.8789 42.5868 28.3494C42.1472 28.7971 41.6091 29.1601 41.0058 29.4161C40.3893 29.6764 39.7142 29.8086 39.0318 29.8027C38.528 29.813 38.0301 29.7044 37.5888 29.4881C37.1571 29.2651 36.8414 28.9002 36.7098 28.4721C36.3063 28.9039 35.8002 29.2509 35.2278 29.4881C34.6963 29.6944 34.1218 29.7989 33.5418 29.7947C33.0976 29.8039 32.6561 29.7303 32.2458 29.5787C31.8912 29.4426 31.5747 29.2387 31.3188 28.9814C31.0652 28.7206 30.8761 28.4154 30.7638 28.0854C30.6364 27.7203 30.5737 27.3397 30.5778 26.9574C30.5796 26.5729 30.6371 26.1902 30.7488 25.8187C30.8663 25.4286 31.0407 25.0539 31.2678 24.7041C31.5045 24.3372 31.794 23.9992 32.1288 23.6987C32.4836 23.3772 32.8876 23.1016 33.3288 22.8801C33.8215 22.6361 34.3479 22.4505 34.8948 22.3281C35.5178 22.1909 36.158 22.1245 36.7998 22.1307C37.3299 22.1231 37.8595 22.1624 38.3808 22.2481C38.8104 22.3245 39.2312 22.4361 39.6378 22.5814L38.5098 26.2427C38.3972 26.5769 38.3366 26.9233 38.3298 27.2721C38.32 27.4891 38.3694 27.705 38.4738 27.9014C38.5601 28.0486 38.7042 28.1625 38.8788 28.2214C39.132 28.3024 39.4032 28.3289 39.6702 28.2988C39.9372 28.2686 40.1923 28.1827 40.4148 28.0481C40.7306 27.8566 40.9957 27.6064 41.1918 27.3147C41.4299 26.9661 41.6078 26.5876 41.7198 26.1921C41.8564 25.7291 41.923 25.252 41.9178 24.7734C41.9342 24.0001 41.7707 23.232 41.4378 22.5174C41.1375 21.8891 40.6799 21.33 40.0998 20.8827C39.4953 20.4334 38.794 20.0985 38.0388 19.8987C37.1918 19.671 36.3106 19.5595 35.4258 19.5681C34.4352 19.5585 33.4523 19.7234 32.5338 20.0534C31.6764 20.3634 30.8934 20.8159 30.2268 21.3867C29.5713 21.9567 29.0511 22.6377 28.6968 23.3894C28.3251 24.1751 28.1372 25.0198 28.1448 25.8721C28.1204 26.8473 28.3247 27.8163 28.7448 28.7174C29.1192 29.5022 29.686 30.2028 30.4038 30.7681C31.1281 31.3269 31.9735 31.748 32.8878 32.0054C33.8869 32.2869 34.9297 32.4264 35.9778 32.4187C36.5482 32.4198 37.1181 32.3913 37.6848 32.3334C38.1753 32.2827 38.6621 32.207 39.1428 32.1067C39.5493 32.0183 39.9499 31.9097 40.3428 31.7814C40.6754 31.6693 41 31.5393 41.3148 31.3921C41.4759 31.3009 41.6708 31.2693 41.8578 31.3041C41.9376 31.3249 42.0105 31.3627 42.0701 31.4143C42.1297 31.4659 42.1742 31.5297 42.1998 31.6001L42.6048 32.4747C41.7034 32.9534 40.7337 33.3221 39.7218 33.5707C38.5014 33.8683 37.2402 34.0128 35.9748 34.0001C34.6239 34.012 33.2803 33.8227 31.9998 33.4401C30.8376 33.097 29.763 32.5533 28.8378 31.8401C27.9363 31.133 27.2196 30.2592 26.7379 29.2801C26.2242 28.2049 25.9726 27.0452 25.9999 25.8774C25.9981 25.1835 26.1082 24.4929 26.3269 23.8267C26.5405 23.17 26.8533 22.5421 27.2568 21.9601C27.6643 21.3738 28.1543 20.8361 28.7148 20.3601C29.2854 19.8742 29.9224 19.454 30.6108 19.1094C32.0779 18.3787 33.7321 17.9966 35.4138 18.0001C36.5136 17.9965 37.6064 18.1551 38.6478 18.4694C39.6443 18.7623 40.5725 19.2141 41.3868 19.8027C42.1827 20.3875 42.8317 21.1143 43.2918 21.9361C43.7769 22.8178 44.0195 23.7894 43.9997 24.7707C44.006 25.4445 43.8802 26.1141 43.6277 26.7494Z" fill="url(#paint0_linear_88_272)"/>
<path d="M45.7997 2.00008H12.1999C11.6519 1.99692 11.1086 2.08973 10.6009 2.27323C10.0933 2.45673 9.63127 2.72731 9.24127 3.06952C8.85126 3.41174 8.54091 3.81889 8.32792 4.26773C8.11494 4.71656 8.0035 5.19829 7.99996 5.68541V10.0001H4.99998C4.20434 10.0001 3.44128 10.281 2.87867 10.7811C2.31607 11.2812 2 11.9595 2 12.6667C2 13.374 2.31607 14.0523 2.87867 14.5524C3.44128 15.0525 4.20434 15.3334 4.99998 15.3334H7.99996V23.3334H4.99998C4.20434 23.3334 3.44128 23.6144 2.87867 24.1145C2.31607 24.6146 2 25.2928 2 26.0001C2 26.7073 2.31607 27.3856 2.87867 27.8857C3.44128 28.3858 4.20434 28.6667 4.99998 28.6667H7.99996V36.6667H4.99998C4.20434 36.6667 3.44128 36.9477 2.87867 37.4478C2.31607 37.9479 2 38.6262 2 39.3334C2 40.0407 2.31607 40.7189 2.87867 41.219C3.44128 41.7191 4.20434 42.0001 4.99998 42.0001H7.99996V46.1067C7.98687 47.1154 8.41952 48.0883 9.20491 48.8163C9.99029 49.5444 11.0657 49.9694 12.1999 50.0001H45.7997C46.934 49.9694 48.0094 49.5444 48.7948 48.8163C49.5802 48.0883 50.0128 47.1154 49.9997 46.1067V5.81341C50.0101 4.81306 49.5738 3.84987 48.7865 3.13503C47.9992 2.42018 46.9251 2.01204 45.7997 2.00008ZM15.4999 43.3334C14.8308 43.3337 14.1702 43.1995 13.5676 42.9409C12.965 42.6823 12.4359 42.306 12.0199 41.8401C12.5991 41.6532 13.0995 41.3124 13.4531 40.8639C13.8067 40.4155 13.9964 39.8811 13.9964 39.3334C13.9964 38.7858 13.8067 38.2514 13.4531 37.8029C13.0995 37.3544 12.5991 37.0136 12.0199 36.8267C12.4359 36.3608 12.965 35.9845 13.5676 35.7259C14.1702 35.4673 14.8308 35.3331 15.4999 35.3334C16.6934 35.3334 17.838 35.7548 18.6819 36.505C19.5258 37.2551 19.9999 38.2725 19.9999 39.3334C19.9999 40.3943 19.5258 41.4117 18.6819 42.1618C17.838 42.912 16.6934 43.3334 15.4999 43.3334ZM15.4999 30.0001C14.8308 30.0004 14.1702 29.8662 13.5676 29.6076C12.965 29.349 12.4359 28.9727 12.0199 28.5067C12.5991 28.3199 13.0995 27.9791 13.4531 27.5306C13.8067 27.0821 13.9964 26.5477 13.9964 26.0001C13.9964 25.4524 13.8067 24.918 13.4531 24.4696C13.0995 24.0211 12.5991 23.6803 12.0199 23.4934C12.4359 23.0275 12.965 22.6512 13.5676 22.3926C14.1702 22.134 14.8308 21.9998 15.4999 22.0001C16.6934 22.0001 17.838 22.4215 18.6819 23.1717C19.5258 23.9218 19.9999 24.9392 19.9999 26.0001C19.9999 27.0609 19.5258 28.0784 18.6819 28.8285C17.838 29.5787 16.6934 30.0001 15.4999 30.0001ZM15.4999 16.6667C14.8308 16.667 14.1702 16.5328 13.5676 16.2743C12.965 16.0157 12.4359 15.6393 12.0199 15.1734C12.5991 14.9866 13.0995 14.6457 13.4531 14.1973C13.8067 13.7488 13.9964 13.2144 13.9964 12.6667C13.9964 12.1191 13.8067 11.5847 13.4531 11.1362C13.0995 10.6877 12.5991 10.3469 12.0199 10.1601C12.4359 9.69415 12.965 9.31783 13.5676 9.05923C14.1702 8.80064 14.8308 8.66647 15.4999 8.66675C16.6934 8.66675 17.838 9.08817 18.6819 9.83832C19.5258 10.5885 19.9999 11.6059 19.9999 12.6667C19.9999 13.7276 19.5258 14.745 18.6819 15.4952C17.838 16.2453 16.6934 16.6667 15.4999 16.6667ZM43.6277 26.7494C43.3969 27.3361 43.0437 27.8789 42.5868 28.3494C42.1472 28.7971 41.6091 29.1601 41.0058 29.4161C40.3893 29.6764 39.7142 29.8086 39.0318 29.8027C38.528 29.813 38.0301 29.7044 37.5888 29.4881C37.1571 29.2651 36.8414 28.9002 36.7098 28.4721C36.3063 28.9039 35.8002 29.2509 35.2278 29.4881C34.6963 29.6944 34.1218 29.7989 33.5418 29.7947C33.0976 29.8039 32.6561 29.7303 32.2458 29.5787C31.8912 29.4426 31.5747 29.2387 31.3188 28.9814C31.0652 28.7206 30.8761 28.4154 30.7638 28.0854C30.6364 27.7203 30.5737 27.3397 30.5778 26.9574C30.5796 26.5729 30.6371 26.1902 30.7488 25.8187C30.8663 25.4286 31.0407 25.0539 31.2678 24.7041C31.5045 24.3372 31.794 23.9992 32.1288 23.6987C32.4836 23.3772 32.8876 23.1016 33.3288 22.8801C33.8215 22.6361 34.3479 22.4505 34.8948 22.3281C35.5178 22.1909 36.158 22.1245 36.7998 22.1307C37.3299 22.1231 37.8595 22.1624 38.3808 22.2481C38.8104 22.3245 39.2312 22.4361 39.6378 22.5814L38.5098 26.2427C38.3972 26.5769 38.3366 26.9233 38.3298 27.2721C38.32 27.4891 38.3694 27.705 38.4738 27.9014C38.5601 28.0486 38.7042 28.1625 38.8788 28.2214C39.132 28.3024 39.4032 28.3289 39.6702 28.2988C39.9372 28.2686 40.1923 28.1827 40.4148 28.0481C40.7306 27.8566 40.9957 27.6064 41.1918 27.3147C41.4299 26.9661 41.6078 26.5876 41.7198 26.1921C41.8564 25.7291 41.923 25.252 41.9178 24.7734C41.9342 24.0001 41.7707 23.232 41.4378 22.5174C41.1375 21.8891 40.6799 21.33 40.0998 20.8827C39.4953 20.4334 38.794 20.0985 38.0388 19.8987C37.1918 19.671 36.3106 19.5595 35.4258 19.5681C34.4352 19.5585 33.4523 19.7234 32.5338 20.0534C31.6764 20.3634 30.8934 20.8159 30.2268 21.3867C29.5713 21.9567 29.0511 22.6377 28.6968 23.3894C28.3251 24.1751 28.1372 25.0198 28.1448 25.8721C28.1204 26.8473 28.3247 27.8163 28.7448 28.7174C29.1192 29.5022 29.686 30.2028 30.4038 30.7681C31.1281 31.3269 31.9735 31.748 32.8878 32.0054C33.8869 32.2869 34.9297 32.4264 35.9778 32.4187C36.5482 32.4198 37.1181 32.3913 37.6848 32.3334C38.1753 32.2827 38.6621 32.207 39.1428 32.1067C39.5493 32.0183 39.9499 31.9097 40.3428 31.7814C40.6754 31.6693 41 31.5393 41.3148 31.3921C41.4759 31.3009 41.6708 31.2693 41.8578 31.3041C41.9376 31.3249 42.0105 31.3627 42.0701 31.4143C42.1297 31.4659 42.1742 31.5297 42.1998 31.6001L42.6048 32.4747C41.7034 32.9534 40.7337 33.3221 39.7218 33.5707C38.5014 33.8683 37.2402 34.0128 35.9748 34.0001C34.6239 34.012 33.2803 33.8227 31.9998 33.4401C30.8376 33.097 29.763 32.5533 28.8378 31.8401C27.9363 31.133 27.2196 30.2592 26.7379 29.2801C26.2242 28.2049 25.9726 27.0452 25.9999 25.8774C25.9981 25.1835 26.1082 24.4929 26.3269 23.8267C26.5405 23.17 26.8533 22.5421 27.2568 21.9601C27.6643 21.3738 28.1543 20.8361 28.7148 20.3601C29.2854 19.8742 29.9224 19.454 30.6108 19.1094C32.0779 18.3787 33.7321 17.9966 35.4138 18.0001C36.5136 17.9965 37.6064 18.1551 38.6478 18.4694C39.6443 18.7623 40.5725 19.2141 41.3868 19.8027C42.1827 20.3875 42.8317 21.1143 43.2918 21.9361C43.7769 22.8178 44.0195 23.7894 43.9997 24.7707C44.006 25.4445 43.8802 26.1141 43.6277 26.7494Z" stroke="url(#paint1_linear_88_272)" stroke-opacity="0.8" stroke-width="4" mask="url(#path-1-outside-1_88_272)"/>
<path d="M34.9668 23.9252C34.5463 24.0968 34.1689 24.3416 33.8568 24.6452C33.542 24.9498 33.291 25.3021 33.1158 25.6852C32.9338 26.0712 32.84 26.4854 32.8398 26.9039C32.8159 27.255 32.9316 27.6024 33.1668 27.8852C33.2851 28.0046 33.4326 28.0981 33.598 28.1587C33.7634 28.2193 33.9423 28.2452 34.1208 28.2346C34.331 28.2335 34.5399 28.2066 34.7418 28.1546C34.9609 28.0966 35.1648 28.0005 35.3418 27.8719C35.548 27.7212 35.7244 27.5409 35.8638 27.3386C36.04 27.0783 36.1714 26.7961 36.2538 26.5012L37.1238 23.7226C36.8642 23.6825 36.6013 23.662 36.3378 23.6612C35.8644 23.6576 35.3961 23.7478 34.9668 23.9252Z" fill="url(#paint2_linear_88_272)"/>
<path d="M36.3445 22.6621C36.6566 22.6632 36.9682 22.6868 37.2762 22.7344L38.4256 22.9121L38.0779 24.0215L37.2078 26.7998L37.2068 26.7988C37.0943 27.1895 36.9215 27.5607 36.6922 27.8994L36.6873 27.9062C36.4818 28.2045 36.2254 28.4644 35.9324 28.6787L35.9295 28.6807C35.6491 28.8844 35.3319 29.0326 34.9979 29.1211L34.991 29.123C34.7088 29.1957 34.4176 29.2328 34.1258 29.2344L34.1248 29.2324C33.8296 29.2429 33.5326 29.1998 33.2537 29.0977C32.9574 28.9891 32.6834 28.8175 32.4568 28.5889L32.4256 28.5586L32.3983 28.5244C32.0212 28.0709 31.8182 27.4992 31.8416 26.9033H31.8397C31.8399 26.3381 31.9671 25.7824 32.2078 25.2686C32.4365 24.7689 32.7596 24.3157 33.159 23.9287L33.3162 23.7832C33.6901 23.4542 34.1214 23.1897 34.5887 22.999V23C35.1411 22.7722 35.7385 22.6583 36.3397 22.6621C36.3413 22.6621 36.3439 22.6611 36.3455 22.6611L36.3445 22.6621Z" stroke="url(#paint3_linear_88_272)" stroke-opacity="0.8" stroke-width="2"/>
<defs>
<linearGradient id="paint0_linear_88_272" x1="26" y1="2" x2="26" y2="50.0001" gradientUnits="userSpaceOnUse">
<stop offset="0.4" stop-color="#567AC3"/>
<stop offset="1" stop-color="#D9E1F0"/>
</linearGradient>
<linearGradient id="paint1_linear_88_272" x1="26" y1="2" x2="26" y2="50.0001" gradientUnits="userSpaceOnUse">
<stop offset="0.35" stop-color="#E4F8FF"/>
<stop offset="0.75" stop-color="#638DCC"/>
</linearGradient>
<linearGradient id="paint2_linear_88_272" x1="34.9803" y1="23.6611" x2="34.9803" y2="28.2369" gradientUnits="userSpaceOnUse">
<stop offset="0.4" stop-color="#567AC3"/>
<stop offset="1" stop-color="#D9E1F0"/>
</linearGradient>
<linearGradient id="paint3_linear_88_272" x1="34.9803" y1="23.6611" x2="34.9803" y2="28.2369" gradientUnits="userSpaceOnUse">
<stop offset="0.35" stop-color="#E4F8FF"/>
<stop offset="0.75" stop-color="#638DCC"/>
</linearGradient>
</defs>
</svg>
