<svg width="50" height="48" viewBox="0 0 50 48" fill="none" xmlns="http://www.w3.org/2000/svg">
<path d="M4.48334 48C4.48334 48 0.400002 48 0.400002 44C0.400002 40 4.48334 28 24.9 28C45.3167 28 49.4 40 49.4 44C49.4 48 45.3167 48 45.3167 48H4.48334ZM24.9 24C28.1489 24 31.2647 22.7357 33.5621 20.4853C35.8594 18.2348 37.15 15.1826 37.15 12C37.15 8.8174 35.8594 5.76516 33.5621 3.51472C31.2647 1.26428 28.1489 0 24.9 0C21.6511 0 18.5353 1.26428 16.2379 3.51472C13.9406 5.76516 12.65 8.8174 12.65 12C12.65 15.1826 13.9406 18.2348 16.2379 20.4853C18.5353 22.7357 21.6511 24 24.9 24Z" fill="#BFDAE0"/>
<path d="M24.9 28.5C35.0058 28.5 40.9956 31.467 44.4566 34.8574C47.9314 38.2614 48.9 42.1317 48.9 44C48.9 44.9104 48.6689 45.5601 48.3482 46.0312C48.0252 46.5059 47.5901 46.8295 47.1383 47.0508C46.6848 47.2729 46.2253 47.387 45.8746 47.4443C45.7007 47.4727 45.5562 47.4863 45.4576 47.4932C45.4084 47.4966 45.3704 47.4982 45.3463 47.499C45.3346 47.4994 45.326 47.4999 45.3209 47.5H4.4791C4.47404 47.4999 4.46544 47.4994 4.45371 47.499C4.42958 47.4982 4.39155 47.4966 4.34238 47.4932C4.24376 47.4863 4.09933 47.4727 3.92539 47.4443C3.57468 47.387 3.11518 47.2729 2.66172 47.0508C2.20987 46.8295 1.77484 46.5059 1.45176 46.0312C1.13114 45.5601 0.900002 44.9104 0.900002 44C0.900002 42.1317 1.86858 38.2614 5.34336 34.8574C8.80437 31.467 14.7942 28.5 24.9 28.5ZM24.9 0.5C28.0196 0.5 31.0097 1.71423 33.2125 3.87207C35.4148 6.02955 36.65 8.95349 36.65 12C36.65 15.0465 35.4148 17.9705 33.2125 20.1279C31.0097 22.2858 28.0196 23.5 24.9 23.5C21.7804 23.5 18.7903 22.2858 16.5875 20.1279C14.3852 17.9705 13.15 15.0465 13.15 12C13.15 8.95349 14.3852 6.02955 16.5875 3.87207C18.7903 1.71423 21.7804 0.5 24.9 0.5Z" stroke="#181A1D" stroke-opacity="0.5"/>
</svg>
