<svg width="49" height="48" viewBox="0 0 49 48" fill="none" xmlns="http://www.w3.org/2000/svg">
<path d="M27.6808 35.3637C26.8265 36.0056 25.7324 36.3591 24.6 36.3591C23.4677 36.3591 22.3736 36.0057 21.5192 35.3637L7.57148 24.8843C7.57148 24.8843 6.31256 23.9389 6.31256 26.0804C6.31256 28.5123 6.31256 35.8079 6.31256 35.8079C6.31256 35.9052 6.31256 36.3935 6.31256 36.5449C6.31256 42.0574 14.5 48.0001 24.5996 48.0001C34.6993 48.0001 42.8867 42.0575 42.8867 36.5449C42.8867 36.3935 42.8867 35.9052 42.8867 35.8079C42.8867 35.8079 42.8867 28.0699 42.8867 25.4905C42.8867 23.7715 41.9918 24.6114 41.9918 24.6114L27.6808 35.3637Z" fill="#BFDAE0"/>
<path d="M42.3331 24.9756L42.3135 24.9951L42.2921 25.0107L27.9815 35.7637C27.0352 36.4746 25.8335 36.8594 24.5997 36.8594C23.3661 36.8593 22.165 36.4747 21.2188 35.7637L7.27155 25.2842L7.27252 25.2852C7.26885 25.2826 7.26128 25.277 7.25104 25.2705C7.23007 25.2573 7.19928 25.2395 7.16315 25.2227C7.0795 25.1836 7.0186 25.174 6.99127 25.1768C6.98949 25.1769 6.98813 25.1766 6.98737 25.1768C6.98611 25.1777 6.98302 25.1814 6.9776 25.1875C6.9707 25.1953 6.9594 25.209 6.94635 25.2324C6.88822 25.3371 6.8126 25.5808 6.81256 26.0801V36.5449C6.8126 39.0567 8.69644 41.7881 11.9434 43.9219C15.1684 46.0412 19.6442 47.5 24.5997 47.5C29.5552 47.5 34.0309 46.0412 37.2559 43.9219C40.5029 41.7881 42.3867 39.0568 42.3868 36.5449V25.4902C42.3868 25.2347 42.3627 25.0716 42.3389 24.9717C42.3368 24.9734 42.3345 24.9744 42.3331 24.9756ZM42.3331 24.9756L42.334 24.9766H42.3331V24.9775L42.3311 24.9785C42.3317 24.978 42.332 24.9765 42.3331 24.9756Z" stroke="#181A1D" stroke-opacity="0.5"/>
<mask id="path-3-inside-1_88_266" fill="white">
<path d="M47.7962 16.5484C48.8679 15.7432 48.8679 14.4256 47.7962 13.6203L26.5485 0.603878C25.4768 -0.201293 23.7231 -0.201293 22.6513 0.603878L1.4038 13.6203C0.332076 14.4254 0.332076 15.7431 1.4038 16.5484L22.6513 32.5125C23.7231 33.3177 25.4768 33.3177 26.5485 32.5125"/>
</mask>
<path d="M47.7962 16.5484C48.8679 15.7432 48.8679 14.4256 47.7962 13.6203L26.5485 0.603878C25.4768 -0.201293 23.7231 -0.201293 22.6513 0.603878L1.4038 13.6203C0.332076 14.4254 0.332076 15.7431 1.4038 16.5484L22.6513 32.5125C23.7231 33.3177 25.4768 33.3177 26.5485 32.5125" fill="#BFDAE0"/>
<path d="M47.7962 13.6203L48.3969 12.8208L48.359 12.7923L48.3186 12.7676L47.7962 13.6203ZM26.5485 0.603878L25.9479 1.40338L25.9858 1.43184L26.0262 1.45659L26.5485 0.603878ZM22.6513 0.603878L23.1737 1.45659L23.2141 1.43184L23.252 1.40338L22.6513 0.603878ZM1.4038 13.6203L0.881417 12.7676L0.841017 12.7923L0.803137 12.8208L1.4038 13.6203ZM1.4038 16.5484L0.803067 17.3479L0.803111 17.3479L1.4038 16.5484ZM22.6513 32.5125L22.0507 33.312L22.0507 33.312L22.6513 32.5125ZM47.7962 16.5484L48.3969 17.3479C49.1476 16.7839 49.6 15.9727 49.6 15.0844C49.6 14.1962 49.1476 13.3849 48.3969 12.8208L47.7962 13.6203L47.1955 14.4197C47.5165 14.661 47.6 14.9112 47.6 15.0844C47.6 15.2576 47.5166 15.5077 47.1956 15.7489L47.7962 16.5484ZM47.7962 13.6203L48.3186 12.7676L27.0709 -0.248837L26.5485 0.603878L26.0262 1.45659L47.2738 14.473L47.7962 13.6203ZM26.5485 0.603878L27.1492 -0.195628C26.4103 -0.750768 25.4824 -1 24.5999 -1C23.7175 -1 22.7896 -0.750768 22.0507 -0.195628L22.6513 0.603878L23.252 1.40338C23.5848 1.15335 24.0697 1 24.5999 1C25.1302 1 25.6151 1.15335 25.9479 1.40338L26.5485 0.603878ZM22.6513 0.603878L22.129 -0.248836L0.881417 12.7676L1.4038 13.6203L1.92617 14.473L23.1737 1.45659L22.6513 0.603878ZM1.4038 13.6203L0.803137 12.8208C0.0524106 13.3848 -0.399994 14.196 -0.399994 15.0843C-0.399994 15.9725 0.0523951 16.7838 0.803067 17.3479L1.4038 16.5484L2.00453 15.7489C1.68348 15.5077 1.60001 15.2575 1.60001 15.0843C1.60001 14.9111 1.68346 14.6609 2.00445 14.4198L1.4038 13.6203ZM1.4038 16.5484L0.803111 17.3479L22.0507 33.312L22.6513 32.5125L23.252 31.713L2.00448 15.7489L1.4038 16.5484ZM22.6513 32.5125L22.0507 33.312C22.7896 33.8672 23.7175 34.1164 24.5999 34.1164C25.4824 34.1164 26.4103 33.8672 27.1492 33.312L26.5485 32.5125L25.9479 31.713C25.6151 31.963 25.1302 32.1164 24.5999 32.1164C24.0697 32.1164 23.5848 31.963 23.252 31.713L22.6513 32.5125Z" fill="#181A1D" fill-opacity="0.5" mask="url(#path-3-inside-1_88_266)"/>
<path d="M46.9175 40.2111C46.9175 35.8034 46.9175 22.58 46.9175 22.58C46.9175 22.58 46.9275 21.7449 46.523 22.0207C46.1985 22.2419 45.4032 22.785 45.123 23.0836C44.7994 23.4281 44.8723 24.2013 44.8723 24.2013C44.8723 24.2013 44.8723 36.2087 44.8723 40.2111C44.8723 40.4384 44.7129 40.5468 44.6369 40.6017C43.9024 41.1306 43.4085 42.1071 43.4085 43.2265C43.4085 44.9087 44.5216 46.2725 45.895 46.2725C47.2682 46.2725 48.3813 44.9087 48.3813 43.2265C48.3813 42.1028 47.8838 41.1233 47.1446 40.5956C47.0711 40.5431 46.9175 40.4382 46.9175 40.2111Z" fill="#BFDAE0"/>
<path d="M45.3724 24.1777L45.3705 24.1543V24.1533C45.3702 24.1502 45.369 24.1437 45.3685 24.1357C45.3675 24.1197 45.3663 24.0948 45.3656 24.0635C45.3641 23.9994 45.3655 23.9122 45.3744 23.8184C45.3898 23.6542 45.4229 23.5396 45.4554 23.4746L45.4876 23.4258C45.5912 23.3154 45.8232 23.1306 46.1019 22.9268C46.2078 22.8493 46.3167 22.7757 46.4173 22.7051V40.2109C46.4173 40.7129 46.7818 40.9515 46.8539 41.0029C47.4451 41.425 47.8812 42.2431 47.8812 43.2266C47.8811 44.7323 46.9018 45.7725 45.8949 45.7725C44.8878 45.7724 43.9086 44.7323 43.9085 43.2266C43.9085 42.2471 44.3413 41.4313 44.929 41.0078V41.0068C44.9941 40.9599 45.3724 40.7169 45.3724 40.2109V24.1777Z" stroke="#181A1D" stroke-opacity="0.5"/>
</svg>
