<svg width="48" height="48" viewBox="0 0 48 48" fill="none" xmlns="http://www.w3.org/2000/svg">
<path d="M18.4615 46.2858V34.2694C18.4615 33.4295 19.3846 32.5724 20.3077 32.5724H27.6923C28.6154 32.5724 29.5385 33.4295 29.5385 34.2866V46.2858C29.5385 46.7405 29.733 47.1765 30.0792 47.4979C30.4254 47.8194 30.895 48 31.3846 48H46.1538C46.6435 48 47.1131 47.8194 47.4593 47.4979C47.8055 47.1765 48 46.7405 48 46.2858V22.2874C48.0004 22.0621 47.953 21.839 47.8605 21.6307C47.768 21.4225 47.6323 21.2332 47.4609 21.0737L42.4615 16.4352V5.14559C42.4615 4.69097 42.267 4.25496 41.9208 3.93349C41.5746 3.61202 41.105 3.43142 40.6154 3.43142H36.9231C36.4334 3.43142 35.9639 3.61202 35.6176 3.93349C35.2714 4.25496 35.0769 4.69097 35.0769 5.14559V9.57845L25.3071 0.503604C25.1356 0.343969 24.9319 0.217315 24.7076 0.130899C24.4833 0.0444822 24.2428 0 24 0C23.7572 0 23.5167 0.0444822 23.2924 0.130899C23.0681 0.217315 22.8644 0.343969 22.6929 0.503604L0.53908 21.0737C0.36775 21.2332 0.231954 21.4225 0.139455 21.6307C0.0469568 21.839 -0.000430337 22.0621 2.9446e-06 22.2874V46.2858C2.9446e-06 46.7405 0.194508 47.1765 0.540729 47.4979C0.88695 47.8194 1.35653 48 1.84616 48H16.6154C17.105 48 17.5746 47.8194 17.9208 47.4979C18.267 47.1765 18.4615 46.7405 18.4615 46.2858Z" fill="#BFDAE0"/>
<path d="M0.5 22.2861C0.499741 22.1321 0.532436 21.9787 0.59668 21.834C0.660911 21.6894 0.755948 21.5551 0.878906 21.4404L23.0332 0.870117V0.869141C23.1567 0.754139 23.3064 0.661728 23.4727 0.597656C23.6389 0.533655 23.8181 0.5 24 0.5C24.1819 0.5 24.3611 0.533655 24.5273 0.597656C24.6936 0.661729 24.8433 0.75414 24.9668 0.869141V0.870117L34.7363 9.94434L35.5771 10.7256V5.14551C35.5772 4.83599 35.7092 4.53084 35.958 4.2998C36.208 4.06771 36.5545 3.9317 36.9229 3.93164H40.6152C40.9837 3.93164 41.331 4.06759 41.5811 4.2998C41.8297 4.53081 41.9619 4.83607 41.9619 5.14551V16.6533L42.1211 16.8018L47.1211 21.4404C47.2441 21.5551 47.3391 21.6894 47.4033 21.834C47.4676 21.9787 47.5003 22.1321 47.5 22.2861V46.2861C47.4999 46.5956 47.3679 46.9009 47.1191 47.1318C46.8692 47.3639 46.5226 47.4999 46.1543 47.5H31.3848C31.0163 47.5 30.669 47.364 30.4189 47.1318C30.1702 46.9009 30.0382 46.5955 30.0381 46.2861V34.2861C30.0379 33.6816 29.7189 33.1285 29.3018 32.7412C28.8822 32.3517 28.3037 32.0723 27.6924 32.0723H20.3076C19.6963 32.0723 19.1183 32.3518 18.6992 32.7383C18.2833 33.1219 17.9619 33.6708 17.9619 34.2695V46.2861C17.9618 46.5955 17.8298 46.9009 17.5811 47.1318C17.331 47.364 16.9837 47.5 16.6152 47.5H1.8457C1.47743 47.4999 1.13084 47.3639 0.880859 47.1318C0.6321 46.9009 0.500088 46.5956 0.5 46.2861V22.2861Z" stroke="#181A1D" stroke-opacity="0.5"/>
</svg>
