<svg width="49" height="48" viewBox="0 0 49 48" fill="none" xmlns="http://www.w3.org/2000/svg">
<path d="M24.8 48V40C15.964 40 8.8 32.836 8.8 24C8.8 15.163 15.964 8 24.8 8V0H19.779V4.661C17.567 5.234 15.495 6.155 13.65 7.396L10.657 4.402L5.001 10.059L8.043 13.101C6.88 14.885 6.007 16.867 5.46 18.984H0.800003V29.016H5.46C6.02 31.18 6.918 33.208 8.12 35.024L5.002 38.143L10.658 43.798L13.777 40.68C15.596 41.885 17.63 42.784 19.8 43.344V48H24.8Z" fill="#BFDAE0"/>
<path d="M20.3 42.957L19.925 42.8594C17.8072 42.3128 15.8242 41.4361 14.0529 40.2627L13.7121 40.0371L13.423 40.3262L10.6574 43.0908L5.70918 38.1416L8.47383 35.3779L8.76192 35.0889L8.53731 34.748C7.36667 32.9794 6.49103 31.0024 5.94453 28.8906L5.84688 28.5156H1.3V19.4844H5.84688L5.94453 19.1094C6.47817 17.0441 7.32921 15.1119 8.46211 13.374L8.68379 13.0342L5.70821 10.0586L10.6564 5.10938L13.2961 7.74902L13.5871 8.04102L13.9289 7.81055C15.725 6.60243 17.745 5.7049 19.9045 5.14551L20.2785 5.04785V0.5H24.3V7.50781C15.4192 7.77215 8.3 15.0541 8.3 24C8.3 32.9449 15.4192 40.2268 24.3 40.4912V47.5H20.3V42.957Z" stroke="#181A1D" stroke-opacity="0.5"/>
<path d="M24.8 29C22.038 29 19.8 26.762 19.8 24C19.8 21.239 22.038 19 24.8 19V15C19.829 15 15.8 19.029 15.8 24C15.8 28.971 19.829 33 24.8 33V29Z" fill="#BFDAE0"/>
<path d="M24.3 18.5234C21.4963 18.7761 19.3 21.1314 19.3 24C19.3 26.8695 21.4964 29.223 24.3 29.4756V32.4844C19.838 32.2256 16.3 28.527 16.3 24C16.3 19.473 19.8379 15.7734 24.3 15.5146V18.5234Z" stroke="#181A1D" stroke-opacity="0.5"/>
<path d="M37.018 48V37.129C43.988 33.699 48.8 26.547 48.8 18.253C48.8 10.436 44.529 3.629 38.202 0V17.741L27.755 26.902V48H37.018Z" fill="#BFDAE0"/>
<path d="M38.7023 0.886719C44.4659 4.52585 48.2999 10.936 48.2999 18.2529C48.2999 26.348 43.6037 33.331 36.797 36.6807L36.5177 36.8174V47.5H28.255V27.1289L38.5314 18.1172L38.7023 17.9678V0.886719Z" stroke="#181A1D" stroke-opacity="0.5"/>
</svg>
