<svg width="52" height="52" viewBox="0 0 52 52" fill="none" xmlns="http://www.w3.org/2000/svg">
<path d="M20.4615 48.2858V36.2694C20.4615 35.4295 21.3846 34.5724 22.3077 34.5724H29.6923C30.6154 34.5724 31.5385 35.4295 31.5385 36.2866V48.2858C31.5385 48.7405 31.733 49.1765 32.0792 49.4979C32.4254 49.8194 32.895 50 33.3846 50H48.1538C48.6435 50 49.1131 49.8194 49.4593 49.4979C49.8055 49.1765 50 48.7405 50 48.2858V24.2874C50.0004 24.0621 49.953 23.839 49.8605 23.6307C49.768 23.4225 49.6323 23.2332 49.4609 23.0737L44.4615 18.4352V7.14559C44.4615 6.69097 44.267 6.25496 43.9208 5.93349C43.5746 5.61202 43.105 5.43142 42.6154 5.43142H38.9231C38.4334 5.43142 37.9639 5.61202 37.6176 5.93349C37.2714 6.25496 37.0769 6.69097 37.0769 7.14559V11.5785L27.3071 2.5036C27.1356 2.34397 26.9319 2.21732 26.7076 2.1309C26.4833 2.04448 26.2428 2 26 2C25.7572 2 25.5167 2.04448 25.2924 2.1309C25.0681 2.21732 24.8644 2.34397 24.6929 2.5036L2.53908 23.0737C2.36775 23.2332 2.23195 23.4225 2.13946 23.6307C2.04696 23.839 1.99957 24.0621 2 24.2874V48.2858C2 48.7405 2.19451 49.1765 2.54073 49.4979C2.88695 49.8194 3.35653 50 3.84616 50H18.6154C19.105 50 19.5746 49.8194 19.9208 49.4979C20.267 49.1765 20.4615 48.7405 20.4615 48.2858Z" fill="url(#paint0_linear_84_249)"/>
<path d="M26 1C26.3645 1 26.7272 1.06717 27.0674 1.19824C27.407 1.32915 27.7203 1.52223 27.9873 1.77051L36.0771 9.28418V7.14551C36.0772 6.40075 36.3965 5.70248 36.9375 5.2002C37.4759 4.70049 38.1912 4.4317 38.9229 4.43164H42.6152C43.3471 4.43164 44.0631 4.70025 44.6016 5.2002C45.1425 5.70248 45.4619 6.40075 45.4619 7.14551V17.999L50.1406 22.3408L50.1426 22.3418C50.4097 22.5905 50.6257 22.8899 50.7744 23.2246C50.923 23.5591 51.0004 23.9204 51 24.2871V48.2861C50.9999 49.0308 50.6805 49.7282 50.1396 50.2305C49.6013 50.7304 48.886 50.9999 48.1543 51H33.3848C32.6529 51 31.9369 50.7305 31.3984 50.2305C30.8577 49.7283 30.5382 49.0307 30.5381 48.2861V36.2861C30.5379 36.2097 30.4849 36.0299 30.2812 35.8408C30.082 35.6559 29.854 35.5723 29.6924 35.5723H22.3076C22.1457 35.5723 21.917 35.6563 21.7168 35.8408C21.5101 36.0314 21.4619 36.2072 21.4619 36.2695V48.2861C21.4618 49.0307 21.1423 49.7283 20.6016 50.2305C20.0631 50.7305 19.3471 51 18.6152 51H3.8457C3.11396 50.9999 2.39872 50.7303 1.86035 50.2305C1.31951 49.7282 1.00009 49.0308 1 48.2861V24.2871C0.999602 23.9204 1.07703 23.5591 1.22559 23.2246C1.3743 22.8899 1.59027 22.5905 1.85742 22.3418L1.8584 22.3408L24.0127 1.77051C24.2797 1.52224 24.593 1.32915 24.9326 1.19824C25.2728 1.06716 25.6355 1 26 1Z" stroke="url(#paint1_linear_84_249)" stroke-opacity="0.8" stroke-width="2"/>
<defs>
<linearGradient id="paint0_linear_84_249" x1="26" y1="2" x2="26" y2="50" gradientUnits="userSpaceOnUse">
<stop offset="0.4" stop-color="#13161C"/>
<stop offset="1" stop-color="#4D6BA6"/>
</linearGradient>
<linearGradient id="paint1_linear_84_249" x1="26" y1="2" x2="26" y2="50" gradientUnits="userSpaceOnUse">
<stop offset="0.35" stop-color="#8BE2FF"/>
<stop offset="0.75" stop-color="#002B5D"/>
</linearGradient>
</defs>
</svg>
