<svg width="53" height="52" viewBox="0 0 53 52" fill="none" xmlns="http://www.w3.org/2000/svg">
<path d="M29.6808 37.3637C28.8265 38.0056 27.7324 38.3591 26.6 38.3591C25.4677 38.3591 24.3736 38.0057 23.5192 37.3637L9.57148 26.8843C9.57148 26.8843 8.31256 25.9389 8.31256 28.0804C8.31256 30.5123 8.31256 37.8079 8.31256 37.8079C8.31256 37.9052 8.31256 38.3935 8.31256 38.5449C8.31256 44.0574 16.5 50.0001 26.5996 50.0001C36.6993 50.0001 44.8867 44.0575 44.8867 38.5449C44.8867 38.3935 44.8867 37.9052 44.8867 37.8079C44.8867 37.8079 44.8867 30.0699 44.8867 27.4905C44.8867 25.7715 43.9918 26.6114 43.9918 26.6114L29.6808 37.3637Z" fill="url(#paint0_linear_88_266)"/>
<path d="M44.461 25.4062C44.6839 25.4111 44.9282 25.4727 45.1553 25.623C45.378 25.7704 45.5322 25.9688 45.6358 26.1699C45.8286 26.5443 45.8868 27.005 45.8868 27.4902V38.5449C45.8867 41.79 43.514 44.9192 40.0801 47.1758C36.6023 49.4613 31.838 51 26.5997 51C21.3613 51 16.5971 49.4613 13.1192 47.1758C9.68532 44.9191 7.3126 41.79 7.31256 38.5449V28.0801C7.31259 27.4734 7.39723 26.9329 7.63483 26.5049C7.90732 26.0142 8.34967 25.7337 8.84283 25.6846C9.26014 25.643 9.61115 25.777 9.79791 25.8643C9.90243 25.9131 9.98853 25.9633 10.0499 26.002C10.081 26.0215 10.1077 26.0386 10.128 26.0527C10.1381 26.0597 10.147 26.066 10.1544 26.0713C10.158 26.0739 10.1612 26.0769 10.1641 26.0791C10.1655 26.0801 10.1668 26.0811 10.168 26.082L10.17 26.083L10.171 26.084C10.1714 26.0843 10.1716 26.0844 9.57135 26.8838L10.1719 26.085L24.1202 36.5645L24.3809 36.7432C25.0111 37.1363 25.7865 37.3593 26.5997 37.3594C27.5291 37.3594 28.4097 37.0681 29.0801 36.5645L43.3751 25.8232C43.3843 25.8155 43.3945 25.8065 43.4053 25.7979C43.4534 25.7594 43.5216 25.7082 43.6055 25.6562C43.7441 25.5706 44.0584 25.3975 44.461 25.4062Z" stroke="url(#paint1_linear_88_266)" stroke-opacity="0.8" stroke-width="2"/>
<mask id="path-3-outside-1_88_266" maskUnits="userSpaceOnUse" x="0.600006" y="0" width="52" height="38" fill="black">
<rect fill="white" x="0.600006" width="52" height="38"/>
<path d="M49.7962 18.5484C50.8679 17.7432 50.8679 16.4256 49.7962 15.6203L28.5485 2.60388C27.4768 1.79871 25.7231 1.79871 24.6513 2.60388L3.4038 15.6203C2.33208 16.4254 2.33208 17.7431 3.4038 18.5484L24.6513 34.5125C25.7231 35.3177 27.4768 35.3177 28.5485 34.5125"/>
</mask>
<path d="M49.7962 18.5484C50.8679 17.7432 50.8679 16.4256 49.7962 15.6203L28.5485 2.60388C27.4768 1.79871 25.7231 1.79871 24.6513 2.60388L3.4038 15.6203C2.33208 16.4254 2.33208 17.7431 3.4038 18.5484L24.6513 34.5125C25.7231 35.3177 27.4768 35.3177 28.5485 34.5125" fill="url(#paint2_linear_88_266)"/>
<path d="M49.7962 15.6203L50.9977 14.0214L50.9218 13.9644L50.841 13.9148L49.7962 15.6203ZM28.5485 2.60388L27.3472 4.20289L27.423 4.25981L27.5038 4.30931L28.5485 2.60388ZM24.6513 2.60388L25.6961 4.30931L25.7769 4.25981L25.8527 4.20289L24.6513 2.60388ZM3.4038 15.6203L2.35904 13.9149L2.27824 13.9644L2.20248 14.0213L3.4038 15.6203ZM3.4038 18.5484L2.20234 20.1473L2.20243 20.1474L3.4038 18.5484ZM24.6513 34.5125L23.45 36.1115L23.45 36.1115L24.6513 34.5125ZM49.7962 18.5484L50.9975 20.1474C51.9631 19.422 52.6 18.3302 52.6 17.0844C52.6 15.8386 51.9632 14.7469 50.9977 14.0214L49.7962 15.6203L48.5948 17.2192C48.6527 17.2627 48.6529 17.2801 48.6372 17.2508C48.6206 17.2199 48.6 17.1613 48.6 17.0844C48.6 17.0075 48.6206 16.9488 48.6373 16.9179C48.653 16.8886 48.6528 16.9059 48.5949 16.9494L49.7962 18.5484ZM49.7962 15.6203L50.841 13.9148L29.5933 0.898448L28.5485 2.60388L27.5038 4.30931L48.7515 17.3257L49.7962 15.6203ZM28.5485 2.60388L29.7499 1.00487C28.8079 0.297171 27.6585 1.75698e-08 26.5999 1.75698e-08C25.5414 1.75698e-08 24.392 0.297171 23.45 1.00487L24.6513 2.60388L25.8527 4.20289C25.9824 4.10541 26.2458 4 26.5999 4C26.9541 4 27.2175 4.10541 27.3472 4.20289L28.5485 2.60388ZM24.6513 2.60388L23.6066 0.89845L2.35904 13.9149L3.4038 15.6203L4.44855 17.3257L25.6961 4.30931L24.6513 2.60388ZM3.4038 15.6203L2.20248 14.0213C1.23689 14.7467 0.600006 15.8385 0.600006 17.0843C0.600006 18.3301 1.23685 19.4218 2.20234 20.1473L3.4038 18.5484L4.60525 16.9495C4.54733 16.906 4.54709 16.8886 4.56279 16.9178C4.57941 16.9488 4.60001 17.0074 4.60001 17.0843C4.60001 17.1612 4.57941 17.2198 4.56276 17.2508C4.54703 17.2801 4.54724 17.2628 4.60511 17.2193L3.4038 15.6203ZM3.4038 18.5484L2.20243 20.1474L23.45 36.1115L24.6513 34.5125L25.8527 32.9136L4.60517 16.9494L3.4038 18.5484ZM24.6513 34.5125L23.45 36.1115C24.392 36.8192 25.5414 37.1164 26.5999 37.1164C27.6585 37.1164 28.8079 36.8192 29.7499 36.1115L28.5485 34.5125L27.3472 32.9135C27.2175 33.011 26.9541 33.1164 26.5999 33.1164C26.2458 33.1164 25.9824 33.011 25.8527 32.9135L24.6513 34.5125Z" fill="url(#paint3_linear_88_266)" fill-opacity="0.8" mask="url(#path-3-outside-1_88_266)"/>
<path d="M48.9175 42.2111C48.9175 37.8034 48.9175 24.58 48.9175 24.58C48.9175 24.58 48.9275 23.7449 48.523 24.0207C48.1985 24.2419 47.4032 24.785 47.123 25.0836C46.7994 25.4281 46.8723 26.2013 46.8723 26.2013C46.8723 26.2013 46.8723 38.2087 46.8723 42.2111C46.8723 42.4384 46.7129 42.5468 46.6369 42.6017C45.9024 43.1306 45.4085 44.1071 45.4085 45.2265C45.4085 46.9087 46.5216 48.2725 47.895 48.2725C49.2682 48.2725 50.3813 46.9087 50.3813 45.2265C50.3813 44.1028 49.8838 43.1233 49.1446 42.5956C49.0711 42.5431 48.9175 42.4382 48.9175 42.2111Z" fill="url(#paint4_linear_88_266)"/>
<path d="M48.5638 22.9697C48.8484 22.9434 49.1172 23.0229 49.3324 23.1748C49.6897 23.4272 49.8018 23.8058 49.8363 23.9307C49.8851 24.1079 49.9029 24.2773 49.9105 24.3809C49.9146 24.4372 49.9165 24.4859 49.9173 24.5215V41.9287C50.8368 42.6858 51.3812 43.9113 51.3812 45.2266C51.3811 47.2617 50.0006 49.2725 47.8949 49.2725C45.7891 49.2724 44.4086 47.2617 44.4085 45.2266C44.4085 43.9112 44.9532 42.6857 45.8724 41.9287V26.2402C45.8722 26.2368 45.8717 26.2331 45.8714 26.2295C45.8693 26.1961 45.8678 26.1511 45.8665 26.0977C45.8641 25.9922 45.8655 25.8442 45.8812 25.6777C45.9066 25.4072 45.9887 24.8311 46.3939 24.3994L46.5746 24.2236C46.7735 24.0451 47.0168 23.8616 47.2162 23.7158C47.5053 23.5043 47.7973 23.3048 47.9593 23.1943L48.0765 23.123C48.205 23.0522 48.3688 22.9878 48.5638 22.9697Z" stroke="url(#paint5_linear_88_266)" stroke-opacity="0.8" stroke-width="2"/>
<defs>
<linearGradient id="paint0_linear_88_266" x1="26.5996" y1="26.4062" x2="26.5996" y2="50.0001" gradientUnits="userSpaceOnUse">
<stop offset="0.4" stop-color="#13161C"/>
<stop offset="1" stop-color="#4D6BA6"/>
</linearGradient>
<linearGradient id="paint1_linear_88_266" x1="26.5996" y1="26.4062" x2="26.5996" y2="50.0001" gradientUnits="userSpaceOnUse">
<stop offset="0.35" stop-color="#8BE2FF"/>
<stop offset="0.75" stop-color="#002B5D"/>
</linearGradient>
<linearGradient id="paint2_linear_88_266" x1="26.6" y1="2" x2="26.6" y2="35.1164" gradientUnits="userSpaceOnUse">
<stop offset="0.4" stop-color="#13161C"/>
<stop offset="1" stop-color="#4D6BA6"/>
</linearGradient>
<linearGradient id="paint3_linear_88_266" x1="26.6" y1="2" x2="26.6" y2="35.1164" gradientUnits="userSpaceOnUse">
<stop offset="0.35" stop-color="#8BE2FF"/>
<stop offset="0.75" stop-color="#002B5D"/>
</linearGradient>
<linearGradient id="paint4_linear_88_266" x1="47.8949" y1="23.9648" x2="47.8949" y2="48.2725" gradientUnits="userSpaceOnUse">
<stop offset="0.4" stop-color="#13161C"/>
<stop offset="1" stop-color="#4D6BA6"/>
</linearGradient>
<linearGradient id="paint5_linear_88_266" x1="47.8949" y1="23.9648" x2="47.8949" y2="48.2725" gradientUnits="userSpaceOnUse">
<stop offset="0.35" stop-color="#8BE2FF"/>
<stop offset="0.75" stop-color="#002B5D"/>
</linearGradient>
</defs>
</svg>
