<svg width="32" height="32" viewBox="0 0 32 32" fill="none" xmlns="http://www.w3.org/2000/svg">
<path d="M16.5018 24.9043C16.6792 24.9043 16.823 24.7604 16.823 24.583C16.823 24.4056 16.6792 24.2617 16.5018 24.2617C16.3243 24.2617 16.1805 24.4056 16.1805 24.583C16.1805 24.7604 16.3243 24.9043 16.5018 24.9043Z" fill="#231F20"/>
<path d="M18.128 24.2617C18.0647 24.2617 18.0028 24.2805 17.9502 24.3156C17.8976 24.3508 17.8566 24.4008 17.8324 24.4593C17.8081 24.5177 17.8018 24.5821 17.8141 24.6441C17.8265 24.7062 17.857 24.7632 17.9017 24.808C17.9465 24.8527 18.0035 24.8832 18.0656 24.8956C18.1276 24.9079 18.192 24.9016 18.2505 24.8774C18.3089 24.8531 18.3589 24.8121 18.3941 24.7595C18.4292 24.7069 18.448 24.645 18.448 24.5817C18.448 24.4968 18.4143 24.4155 18.3543 24.3554C18.2943 24.2954 18.2129 24.2617 18.128 24.2617Z" fill="#231F20"/>
<path d="M19.7242 24.9043C19.9016 24.9043 20.0454 24.7604 20.0454 24.583C20.0454 24.4056 19.9016 24.2617 19.7242 24.2617C19.5467 24.2617 19.4029 24.4056 19.4029 24.583C19.4029 24.7604 19.5467 24.9043 19.7242 24.9043Z" fill="#231F20"/>
<path d="M13.0445 22.3308C12.6547 22.3316 12.2718 22.4337 11.9334 22.6271V20.3871C11.9334 20.3023 11.8997 20.2209 11.8397 20.1609C11.7797 20.1009 11.6983 20.0671 11.6134 20.0671H8.72C8.65568 20.0672 8.59288 20.0867 8.53979 20.123C8.48669 20.1593 8.44576 20.2107 8.42234 20.2706C8.39892 20.3305 8.39409 20.3961 8.40849 20.4588C8.42288 20.5214 8.45583 20.5783 8.50304 20.622C8.66936 20.7727 8.80226 20.9565 8.89321 21.1616C8.98415 21.3667 9.0311 21.5887 9.03104 21.8131C9.03104 22.2439 8.85991 22.657 8.55529 22.9616C8.25067 23.2662 7.83752 23.4374 7.40672 23.4374C6.97592 23.4374 6.56277 23.2662 6.25815 22.9616C5.95353 22.657 5.7824 22.2439 5.7824 21.8131C5.78234 21.5887 5.8293 21.3667 5.92024 21.1616C6.01118 20.9565 6.14409 20.7727 6.3104 20.622C6.35761 20.5783 6.39056 20.5214 6.40496 20.4588C6.41935 20.3961 6.41452 20.3305 6.3911 20.2706C6.36768 20.2107 6.32675 20.1593 6.27366 20.123C6.22056 20.0867 6.15776 20.0672 6.09344 20.0671H3.2C3.11513 20.0671 3.03374 20.1009 2.97373 20.1609C2.91372 20.2209 2.88 20.3023 2.88 20.3871V27.5199C2.88 27.9443 3.04857 28.3513 3.34863 28.6513C3.64869 28.9514 4.05565 29.1199 4.48 29.1199H11.6134C11.6983 29.1199 11.7797 29.0862 11.8397 29.0262C11.8997 28.9662 11.9334 28.8848 11.9334 28.7999V26.5599C12.2349 26.7302 12.5714 26.829 12.917 26.8487C13.2626 26.8685 13.6081 26.8087 13.927 26.6739C14.2459 26.539 14.5295 26.3329 14.7562 26.0712C14.9828 25.8095 15.1464 25.4993 15.2343 25.1645C15.3222 24.8296 15.3321 24.4791 15.2632 24.1398C15.1943 23.8006 15.0485 23.4816 14.8369 23.2076C14.6254 22.9335 14.3538 22.7117 14.043 22.5592C13.7323 22.4066 13.3907 22.3274 13.0445 22.3276V22.3308Z" fill="#231F20"/>
<path d="M13.0445 26.2195C12.8191 26.2196 12.5963 26.1722 12.3905 26.0803C12.1848 25.9884 12.0007 25.8542 11.8502 25.6864C11.8064 25.6392 11.7495 25.6061 11.6868 25.5914C11.6241 25.5767 11.5585 25.5811 11.4982 25.6039C11.438 25.6271 11.3862 25.668 11.3496 25.7213C11.3131 25.7745 11.2935 25.8375 11.2934 25.9021V28.48H4.48C4.22539 28.48 3.98121 28.3789 3.80118 28.1988C3.62114 28.0188 3.52 27.7746 3.52 27.52V20.7085H5.43296C5.24129 21.0455 5.14112 21.4267 5.1424 21.8144C5.1424 22.415 5.38096 22.9909 5.8056 23.4155C6.23025 23.8402 6.80619 24.0787 7.40672 24.0787C8.00726 24.0787 8.58319 23.8402 9.00784 23.4155C9.43248 22.9909 9.67104 22.415 9.67104 21.8144C9.67232 21.4267 9.57215 21.0455 9.38048 20.7085H11.2934V23.2877C11.2934 23.3524 11.3129 23.4156 11.3495 23.4689C11.386 23.5223 11.4379 23.5633 11.4982 23.5866C11.5585 23.6094 11.6241 23.6137 11.6868 23.599C11.7495 23.5843 11.8064 23.5512 11.8502 23.504C12.0007 23.3362 12.1848 23.202 12.3905 23.1101C12.5963 23.0183 12.8191 22.9708 13.0445 22.9709C13.2578 22.9709 13.469 23.0129 13.6661 23.0945C13.8632 23.1762 14.0422 23.2958 14.193 23.4467C14.3439 23.5975 14.4635 23.7765 14.5452 23.9736C14.6268 24.1707 14.6688 24.3819 14.6688 24.5952C14.6688 24.8085 14.6268 25.0197 14.5452 25.2168C14.4635 25.4139 14.3439 25.593 14.193 25.7438C14.0422 25.8946 13.8632 26.0143 13.6661 26.0959C13.469 26.1775 13.2578 26.2195 13.0445 26.2195Z" fill="#00A1D3"/>
<path d="M28.8 20.0685H26.5638C26.7574 19.7302 26.8587 19.3471 26.8576 18.9574C26.8576 18.3569 26.619 17.781 26.1944 17.3563C25.7698 16.9317 25.1938 16.6931 24.5933 16.6931C23.9927 16.6931 23.4168 16.9317 22.9922 17.3563C22.5675 17.781 22.329 18.3569 22.329 18.9574C22.3279 19.3471 22.4292 19.7302 22.6227 20.0685H20.3866C20.3017 20.0685 20.2203 20.1022 20.1603 20.1622C20.1003 20.2222 20.0666 20.3036 20.0666 20.3885V23.2819C20.0666 23.3462 20.0861 23.409 20.1224 23.4621C20.1587 23.5152 20.2101 23.5562 20.27 23.5796C20.3299 23.603 20.3955 23.6078 20.4582 23.5934C20.5209 23.579 20.5778 23.5461 20.6214 23.4989C20.772 23.3326 20.9557 23.1997 21.1607 23.1088C21.3657 23.0178 21.5875 22.9709 21.8118 22.9709C22.2426 22.9709 22.6558 23.142 22.9604 23.4466C23.265 23.7512 23.4362 24.1644 23.4362 24.5952C23.4362 25.026 23.265 25.4391 22.9604 25.7438C22.6558 26.0484 22.2426 26.2195 21.8118 26.2195C21.5875 26.2195 21.3657 26.1725 21.1607 26.0816C20.9557 25.9907 20.772 25.8578 20.6214 25.6915C20.5778 25.6443 20.5209 25.6114 20.4582 25.597C20.3955 25.5826 20.3299 25.5874 20.27 25.6108C20.2101 25.6342 20.1587 25.6752 20.1224 25.7283C20.0861 25.7814 20.0666 25.8442 20.0666 25.9085V28.8C20.0666 28.8849 20.1003 28.9663 20.1603 29.0263C20.2203 29.0863 20.3017 29.12 20.3866 29.12H27.52C27.9443 29.12 28.3513 28.9514 28.6514 28.6514C28.9514 28.3513 29.12 27.9443 29.12 27.52V20.3885C29.12 20.3036 29.0863 20.2222 29.0263 20.1622C28.9663 20.1022 28.8849 20.0685 28.8 20.0685Z" fill="#231F20"/>
<path d="M28.48 27.5199C28.48 27.7745 28.3789 28.0187 28.1988 28.1987C28.0188 28.3787 27.7746 28.4799 27.52 28.4799H20.7066V26.5663C21.0433 26.7581 21.4243 26.8585 21.8118 26.8575C22.1092 26.8575 22.4036 26.7989 22.6784 26.6851C22.9531 26.5713 23.2027 26.4045 23.413 26.1943C23.6232 25.984 23.79 25.7344 23.9038 25.4597C24.0176 25.185 24.0762 24.8905 24.0762 24.5932C24.0762 24.2958 24.0176 24.0014 23.9038 23.7267C23.79 23.4519 23.6232 23.2023 23.413 22.9921C23.2027 22.7818 22.9531 22.615 22.6784 22.5012C22.4036 22.3874 22.1092 22.3288 21.8118 22.3288C21.4244 22.328 21.0435 22.4281 20.7066 22.6194V20.7084H23.2858C23.3503 20.7084 23.4134 20.689 23.4666 20.6526C23.5199 20.6162 23.561 20.5645 23.5844 20.5044C23.6078 20.4442 23.6124 20.3784 23.5977 20.3155C23.5831 20.2527 23.5497 20.1958 23.5021 20.1522C23.3343 20.0017 23.2 19.8175 23.1082 19.6116C23.0163 19.4057 22.9689 19.1828 22.969 18.9573C22.969 18.5265 23.1401 18.1134 23.4447 17.8088C23.7493 17.5041 24.1625 17.333 24.5933 17.333C25.0241 17.333 25.4372 17.5041 25.7418 17.8088C26.0465 18.1134 26.2176 18.5265 26.2176 18.9573C26.2177 19.1828 26.1702 19.4057 26.0784 19.6116C25.9865 19.8175 25.8523 20.0017 25.6845 20.1522C25.6369 20.1957 25.6036 20.2526 25.5888 20.3154C25.5741 20.3782 25.5787 20.4439 25.6021 20.5041C25.6254 20.5642 25.6663 20.6159 25.7195 20.6523C25.7727 20.6888 25.8357 20.7083 25.9002 20.7084H28.48V27.5199Z" fill="#D12200"/>
<path d="M18.5018 15.2014C18.5262 14.6228 18.7648 14.074 19.1712 13.6615C19.5827 13.2271 19.9004 12.7126 20.1045 12.1501C20.3086 11.5876 20.3948 10.9891 20.3577 10.3919C20.3206 9.79462 20.161 9.21141 19.8888 8.67849C19.6167 8.14558 19.2378 7.67436 18.7757 7.29417C18.2731 6.88154 17.6851 6.58577 17.0542 6.42827C16.4233 6.27076 15.7652 6.25545 15.1277 6.38345C14.3648 6.53871 13.6573 6.89522 13.0786 7.41601C12.5 7.9368 12.0711 8.60291 11.8366 9.34527C11.6021 10.0876 11.5704 10.8792 11.7449 11.6379C11.9193 12.3966 12.2936 13.0949 12.8288 13.6603C13.2354 14.0732 13.4744 14.6224 13.4995 15.2014C13.3049 15.224 13.1252 15.3169 12.9942 15.4627C12.8633 15.6085 12.7901 15.7971 12.7885 15.9931V16.5876C12.7888 16.8031 12.8746 17.0096 13.0269 17.162C13.1793 17.3143 13.3858 17.4001 13.6013 17.4004H13.6653C13.7165 17.9853 13.9851 18.5297 14.418 18.9264C14.8509 19.323 15.4167 19.543 16.0038 19.543C16.591 19.543 17.1568 19.323 17.5897 18.9264C18.0226 18.5297 18.2912 17.9853 18.3424 17.4004H18.4064C18.6219 17.4001 18.8284 17.3143 18.9808 17.162C19.1331 17.0096 19.2189 16.8031 19.2192 16.5876V15.9931C19.2174 15.7961 19.1433 15.6067 19.011 15.4608C18.8788 15.3148 18.6976 15.2225 18.5018 15.2014Z" fill="#231F20"/>
<path d="M12.3328 9.99097C12.4626 9.25859 12.8104 8.5824 13.3306 8.05077C13.8508 7.51915 14.5192 7.15682 15.2486 7.01113C15.7936 6.90183 16.3561 6.91476 16.8955 7.049C17.4349 7.18324 17.9378 7.43545 18.368 7.78745C18.7624 8.11183 19.0858 8.5139 19.3181 8.96865C19.5505 9.4234 19.6867 9.9211 19.7184 10.4308C19.7501 10.9404 19.6766 11.4512 19.5024 11.9312C19.3282 12.4113 19.0571 12.8503 18.7059 13.221C18.1921 13.7472 17.8918 14.4452 17.863 15.1801H17.1955V12.4095H17.4278C17.6598 12.4099 17.8823 12.3181 18.0466 12.1544C18.2109 11.9907 18.3035 11.7685 18.304 11.5366V11.4559C18.304 11.2244 18.212 11.0024 18.0483 10.8387C17.8846 10.6749 17.6626 10.583 17.431 10.583C17.1995 10.583 16.9775 10.6749 16.8138 10.8387C16.6501 11.0024 16.5581 11.2244 16.5581 11.4559V11.7702H15.4445V11.4559C15.4445 11.2244 15.3525 11.0024 15.1888 10.8387C15.0251 10.6749 14.803 10.583 14.5715 10.583C14.34 10.583 14.118 10.6749 13.9542 10.8387C13.7905 11.0024 13.6986 11.2244 13.6986 11.4559V11.5372C13.6991 11.7687 13.7913 11.9905 13.955 12.1542C14.1188 12.3178 14.3407 12.4098 14.5722 12.4102H14.8045V15.1807H14.1363C14.1072 14.4455 13.8067 13.7471 13.2928 13.2204C12.8897 12.7958 12.5926 12.282 12.4258 11.7207C12.2589 11.1595 12.2271 10.5668 12.3328 9.99097Z" fill="#FFBA50"/>
<path d="M14.8045 11.7697H14.5722C14.5415 11.7698 14.5112 11.7638 14.4828 11.7522C14.4545 11.7405 14.4287 11.7233 14.407 11.7017C14.3853 11.6801 14.3681 11.6543 14.3564 11.626C14.3446 11.5977 14.3386 11.5674 14.3386 11.5367V11.4561C14.3386 11.3943 14.3631 11.3351 14.4068 11.2914C14.4505 11.2477 14.5097 11.2231 14.5715 11.2231C14.6333 11.2231 14.6926 11.2477 14.7362 11.2914C14.7799 11.3351 14.8045 11.3943 14.8045 11.4561V11.7697Z" fill="#FFBA50"/>
<path d="M16.5555 12.4097H15.4445V15.1809H16.5555V12.4097Z" fill="#FFBA50"/>
<path d="M17.1955 11.7697V11.4561C17.1955 11.3943 17.2201 11.3351 17.2638 11.2914C17.3074 11.2477 17.3667 11.2231 17.4285 11.2231C17.4903 11.2231 17.5495 11.2477 17.5932 11.2914C17.6369 11.3351 17.6614 11.3943 17.6614 11.4561V11.5374C17.6614 11.568 17.6554 11.5984 17.6436 11.6267C17.6319 11.655 17.6147 11.6807 17.593 11.7023C17.5713 11.724 17.5455 11.7411 17.5172 11.7528C17.4888 11.7645 17.4585 11.7704 17.4278 11.7703L17.1955 11.7697Z" fill="#FFBA50"/>
<path d="M16 18.9038C15.5825 18.9025 15.1798 18.7492 14.8672 18.4725C14.5545 18.1958 14.3534 17.8146 14.3014 17.4004H17.6986C17.6466 17.8146 17.4455 18.1958 17.1328 18.4725C16.8202 18.7492 16.4175 18.9025 16 18.9038Z" fill="#8D7F89"/>
<path d="M18.3994 15.8201H13.6C13.5046 15.8201 13.4272 15.8974 13.4272 15.9929V16.5868C13.4272 16.6822 13.5046 16.7596 13.6 16.7596H18.3994C18.4948 16.7596 18.5722 16.6822 18.5722 16.5868V15.9929C18.5722 15.8974 18.4948 15.8201 18.3994 15.8201Z" fill="#8D7F89"/>
<path d="M16 5.77332C16.0849 5.77332 16.1663 5.73961 16.2263 5.6796C16.2863 5.61959 16.32 5.53819 16.32 5.45332V3.19988C16.32 3.11501 16.2863 3.03362 16.2263 2.97361C16.1663 2.9136 16.0849 2.87988 16 2.87988C15.9151 2.87988 15.8337 2.9136 15.7737 2.97361C15.7137 3.03362 15.68 3.11501 15.68 3.19988V5.45332C15.68 5.53819 15.7137 5.61959 15.7737 5.6796C15.8337 5.73961 15.9151 5.77332 16 5.77332Z" fill="#231F20"/>
<path d="M21.127 10.9006C21.127 10.9854 21.1608 11.0668 21.2208 11.1268C21.2808 11.1869 21.3622 11.2206 21.447 11.2206H23.7024C23.7873 11.2206 23.8687 11.1869 23.9287 11.1268C23.9887 11.0668 24.0224 10.9854 24.0224 10.9006C24.0224 10.8157 23.9887 10.7343 23.9287 10.6743C23.8687 10.6143 23.7873 10.5806 23.7024 10.5806H21.447C21.3622 10.5806 21.2808 10.6143 21.2208 10.6743C21.1608 10.7343 21.127 10.8157 21.127 10.9006Z" fill="#231F20"/>
<path d="M8.2976 11.2206H10.553C10.6378 11.2206 10.7192 11.1869 10.7792 11.1268C10.8392 11.0668 10.873 10.9854 10.873 10.9006C10.873 10.8157 10.8392 10.7343 10.7792 10.6743C10.7192 10.6143 10.6378 10.5806 10.553 10.5806H8.2976C8.21273 10.5806 8.13134 10.6143 8.07133 10.6743C8.01131 10.7343 7.9776 10.8157 7.9776 10.9006C7.9776 10.9854 8.01131 11.0668 8.07133 11.1268C8.13134 11.1869 8.21273 11.2206 8.2976 11.2206Z" fill="#231F20"/>
<path d="M12.9997 6.34315C13.0421 6.41647 13.1119 6.46997 13.1937 6.49193C13.2755 6.51388 13.3627 6.5025 13.4362 6.46027C13.5097 6.41783 13.5633 6.34794 13.5852 6.26596C13.6072 6.18399 13.5957 6.09664 13.5533 6.02315L12.4256 4.06987C12.4056 4.03162 12.3781 3.99782 12.3447 3.9705C12.3112 3.94317 12.2727 3.92289 12.2312 3.91087C12.1898 3.89884 12.1463 3.89532 12.1035 3.90053C12.0606 3.90573 12.0193 3.91955 11.9819 3.94115C11.9445 3.96275 11.9119 3.99168 11.886 4.02621C11.8601 4.06073 11.8415 4.10014 11.8312 4.14206C11.821 4.18398 11.8193 4.22754 11.8263 4.27013C11.8333 4.31271 11.8488 4.35344 11.872 4.38987L12.9997 6.34315Z" fill="#231F20"/>
<path d="M20.7174 8.49727C20.7736 8.49727 20.8288 8.48248 20.8774 8.45439L22.8307 7.32671C22.8672 7.3057 22.8991 7.27772 22.9247 7.24437C22.9503 7.21101 22.9691 7.17294 22.98 7.13232C22.9909 7.0917 22.9937 7.04933 22.9883 7.00763C22.9828 6.96592 22.9692 6.92571 22.9482 6.88927C22.9271 6.85284 22.8992 6.8209 22.8658 6.79528C22.8325 6.76966 22.7944 6.75086 22.7538 6.73996C22.7131 6.72905 22.6708 6.72625 22.6291 6.73172C22.5874 6.73719 22.5472 6.75082 22.5107 6.77183L20.5574 7.90015C20.4964 7.93538 20.4488 7.98974 20.4218 8.05482C20.3949 8.1199 20.3901 8.19206 20.4084 8.2601C20.4266 8.32814 20.4668 8.38826 20.5226 8.43114C20.5785 8.47403 20.647 8.49727 20.7174 8.49727Z" fill="#231F20"/>
<path d="M11.1226 13.3467L9.16928 14.4744C9.0957 14.5168 9.04199 14.5867 9.01996 14.6688C8.99794 14.7508 9.00941 14.8382 9.05184 14.9118C9.09428 14.9854 9.1642 15.0391 9.24624 15.0611C9.32827 15.0831 9.4157 15.0717 9.48928 15.0292L11.4426 13.9009C11.4792 13.8801 11.5114 13.8521 11.5373 13.8188C11.5632 13.7854 11.5822 13.7473 11.5932 13.7066C11.6043 13.6658 11.6072 13.6233 11.6017 13.5815C11.5963 13.5396 11.5826 13.4993 11.5615 13.4627C11.5404 13.4262 11.5123 13.3942 11.4788 13.3685C11.4453 13.3429 11.407 13.3242 11.3662 13.3134C11.3254 13.3026 11.2829 13.3 11.241 13.3057C11.1992 13.3114 11.159 13.3253 11.1226 13.3467Z" fill="#231F20"/>
<path d="M9.16928 7.32671L11.1226 8.45439C11.159 8.47574 11.1992 8.48967 11.241 8.49539C11.2829 8.5011 11.3254 8.49849 11.3662 8.48771C11.407 8.47692 11.4453 8.45817 11.4788 8.43253C11.5123 8.4069 11.5404 8.37489 11.5615 8.33834C11.5826 8.30179 11.5963 8.26143 11.6017 8.21958C11.6072 8.17773 11.6043 8.13522 11.5932 8.09449C11.5822 8.05377 11.5632 8.01563 11.5373 7.98227C11.5114 7.94892 11.4792 7.92101 11.4426 7.90015L9.48928 6.77183C9.4157 6.7294 9.32827 6.71793 9.24624 6.73996C9.1642 6.76198 9.09428 6.81569 9.05184 6.88927C9.00941 6.96286 8.99794 7.05028 9.01996 7.13232C9.04199 7.21435 9.0957 7.28428 9.16928 7.32671Z" fill="#231F20"/>
<path d="M20.5574 13.9009L22.5107 15.0292C22.5594 15.0573 22.6145 15.0721 22.6707 15.0721C22.7414 15.0724 22.8101 15.0492 22.8662 15.0063C22.9223 14.9634 22.9627 14.9031 22.9809 14.8349C22.9992 14.7666 22.9944 14.6942 22.9672 14.629C22.94 14.5638 22.892 14.5094 22.8307 14.4744L20.8774 13.3467C20.841 13.3253 20.8008 13.3114 20.7589 13.3057C20.7171 13.3 20.6746 13.3026 20.6338 13.3134C20.593 13.3242 20.5547 13.3429 20.5212 13.3685C20.4877 13.3942 20.4596 13.4262 20.4385 13.4627C20.4174 13.4993 20.4037 13.5396 20.3983 13.5815C20.3928 13.6233 20.3957 13.6658 20.4068 13.7066C20.4178 13.7473 20.4368 13.7854 20.4627 13.8188C20.4886 13.8521 20.5207 13.8801 20.5574 13.9009Z" fill="#231F20"/>
<path d="M18.5638 6.46027C18.6373 6.5025 18.7245 6.51388 18.8063 6.49193C18.8881 6.46997 18.9579 6.41647 19.0003 6.34315L20.128 4.38987C20.1512 4.35344 20.1667 4.31271 20.1737 4.27013C20.1807 4.22754 20.179 4.18398 20.1688 4.14206C20.1585 4.10014 20.1398 4.06073 20.114 4.02621C20.0881 3.99168 20.0555 3.96275 20.0181 3.94115C19.9807 3.91955 19.9394 3.90573 19.8965 3.90053C19.8537 3.89532 19.8102 3.89884 19.7688 3.91087C19.7273 3.92289 19.6887 3.94317 19.6553 3.9705C19.6219 3.99782 19.5944 4.03162 19.5744 4.06987L18.4467 6.02315C18.4043 6.09664 18.3928 6.18399 18.4148 6.26596C18.4367 6.34794 18.4903 6.41783 18.5638 6.46027Z" fill="#231F20"/>
</svg>
