<svg width="32" height="32" viewBox="0 0 32 32" fill="none" xmlns="http://www.w3.org/2000/svg">
<path d="M3.65625 19.0125V24.5906C3.70312 27.5187 8.52187 29.8875 16 29.8875C23.4781 29.8875 28.2938 27.5187 28.3438 24.5906V19.0125H3.65625Z" fill="#1B9BDB"/>
<path d="M28.3438 18.9907C28.3438 22.097 23.5063 24.6157 16 24.6157C8.49375 24.6157 3.65625 22.097 3.65625 18.9907C3.65625 15.8845 8.49375 13.3657 16 13.3657C23.5063 13.3657 28.3438 15.8813 28.3438 18.9907Z" fill="white"/>
<path d="M3.65625 13.3875V18.3406C3.70312 21.2687 8.52187 23.95 16 23.95C23.4781 23.95 28.2938 21.2687 28.3438 18.3406V13.3875H3.65625Z" fill="#1B9BDB"/>
<path d="M28.3438 13.3657C28.3438 16.472 23.5063 18.9907 16 18.9907C8.49375 18.9907 3.65625 16.472 3.65625 13.3657C3.65625 10.2595 8.49375 7.74072 16 7.74072C23.5063 7.74072 28.3438 10.2563 28.3438 13.3657Z" fill="white"/>
<path d="M3.65625 7.76245V12.7156C3.70312 15.6437 8.52187 18.325 16 18.325C23.4781 18.325 28.2938 15.6437 28.3438 12.7156V7.76245H3.65625Z" fill="#1B9BDB"/>
<path d="M28.3438 7.74072C28.3438 10.847 23.5063 13.3657 16 13.3657C8.49375 13.3657 3.65625 10.847 3.65625 7.74072C3.65625 4.63447 8.49375 2.11572 16 2.11572C23.5063 2.11572 28.3438 4.63135 28.3438 7.74072Z" fill="#3ED6FF"/>
</svg>
