<svg width="32" height="32" viewBox="0 0 32 32" fill="none" xmlns="http://www.w3.org/2000/svg">
<path d="M18.5031 16.901C17.9731 16.9084 18.6034 17.1742 19.2954 17.2807C19.4866 17.1314 19.66 16.9804 19.8146 16.8335C19.3836 16.9391 18.945 16.9415 18.5031 16.901Z" fill="#A80030"/>
<path d="M21.3481 16.192C21.6637 15.7563 21.8938 15.2793 21.9749 14.7861C21.9042 15.1377 21.7133 15.4413 21.5337 15.7616C20.5429 16.3855 21.4405 15.3911 21.5331 15.0133C20.4676 16.3542 21.3868 15.8174 21.3481 16.192Z" fill="#A80030"/>
<path d="M22.3982 13.4591C22.4622 12.5046 22.2103 12.8064 22.1257 13.1706C22.2245 13.222 22.3027 13.8435 22.3982 13.4591Z" fill="#A80030"/>
<path d="M16.4932 0.412598C16.7761 0.463333 17.1044 0.502269 17.0584 0.569817C17.3678 0.501974 17.438 0.43944 16.4932 0.412598Z" fill="#A80030"/>
<path d="M17.0584 0.569824L16.8584 0.61112L17.0445 0.594602L17.0584 0.569824Z" fill="#A80030"/>
<path d="M25.8792 13.8212C25.9107 14.6784 25.6285 15.0943 25.3739 15.8305L24.9158 16.0594C24.5409 16.7874 24.9521 16.5217 24.6837 17.1007C24.0984 17.621 22.9076 18.7289 22.5265 18.8301C22.2484 18.8239 22.715 18.5018 22.7761 18.3756C21.9926 18.9136 22.1475 19.1832 20.9493 19.51L20.9142 19.4321C17.9592 20.8223 13.8544 18.0673 13.9084 14.3082C13.8768 14.5468 13.8187 14.4872 13.7532 14.5837C13.6007 12.6496 14.6464 10.7069 16.41 9.91371C18.135 9.05977 20.1573 9.4102 21.393 10.5618C20.7142 9.67272 19.3633 8.73029 17.7622 8.81848C16.1938 8.84326 14.7266 9.83997 14.237 10.9219C13.4335 11.4278 13.3402 12.872 12.9901 13.1363C12.519 16.5984 13.8762 18.0942 16.172 19.8537C16.5333 20.0973 16.2737 20.1342 16.3227 20.3197C15.5599 19.9625 14.8614 19.4233 14.2871 18.7632C14.5918 19.2091 14.9207 19.6428 15.3458 19.9834C14.6266 19.7398 13.6659 18.2408 13.3854 18.1797C14.6251 20.3994 18.4152 22.0724 20.3998 21.2424C19.4815 21.2763 18.3149 21.2613 17.2831 20.8799C16.8498 20.6569 16.2605 20.1949 16.3658 20.1085C19.0742 21.1203 21.872 20.8749 24.2155 18.9962C24.8117 18.5319 25.463 17.742 25.6512 17.731C25.3677 18.1573 25.6995 17.9361 25.4819 18.3124C26.0759 17.3544 25.2238 17.9225 26.096 16.6579L26.4181 17.1016C26.2983 16.3063 27.4057 15.3406 27.2933 14.0828C27.5472 13.6982 27.5767 14.4967 27.3071 15.3816C27.6812 14.3999 27.4057 14.2421 27.5018 13.4321C27.6057 13.7044 27.7419 13.9938 27.8118 14.2811C27.5682 13.3324 28.062 12.6835 28.1841 12.1322C28.0637 12.0788 27.808 12.5516 27.7496 11.431C27.7582 10.9443 27.885 11.1759 27.934 11.0561C27.8384 11.0013 27.5877 10.6281 27.4352 9.91253C27.5458 9.7444 27.7307 10.3485 27.8812 10.3733C27.7844 9.80428 27.6177 9.37037 27.611 8.93382C27.1715 8.01528 27.4555 9.05623 27.0989 8.53944C26.6311 7.08022 27.4871 8.20081 27.5449 7.53772C28.254 8.5651 28.6584 10.1574 28.8439 10.8169C28.7024 10.0128 28.4735 9.2338 28.1941 8.48015C28.4095 8.57071 27.8472 6.82566 28.4741 7.98135C27.8045 5.51775 25.6084 3.21579 23.5881 2.13561C23.8353 2.36185 24.1474 2.64591 24.0353 2.69045C23.0306 2.09225 23.2073 2.04564 23.0634 1.79285C22.2448 1.45983 22.1912 1.81969 21.649 1.79344C20.1063 0.97519 19.809 1.06221 18.3893 0.549546L18.4539 0.851302C17.4318 0.510905 17.2631 0.9805 16.1584 0.852482C16.0911 0.799977 16.5124 0.66252 16.859 0.61208C15.8708 0.742458 15.9171 0.417399 14.9502 0.648067C15.1885 0.480818 15.4404 0.370204 15.6947 0.228027C14.8888 0.276993 13.7709 0.697032 14.116 0.315044C12.8016 0.901447 10.4672 1.72471 9.15725 2.95297L9.11595 2.67777C8.51569 3.39838 6.49838 4.82988 6.33762 5.76317L6.17715 5.80063C5.86478 6.32951 5.66272 6.9289 5.41495 7.47312C5.00641 8.16925 4.81615 7.74095 4.87426 7.85009C4.07076 9.47922 3.67166 10.8482 3.32684 11.9708C3.57255 12.3381 3.33274 14.1817 3.42566 15.6571C3.02214 22.9441 8.53988 30.0193 14.5712 31.6528C15.4552 31.969 16.7699 31.9569 17.8881 31.9894C16.5687 31.6121 16.3982 31.7894 15.113 31.3413C14.1859 30.9048 13.9827 30.4063 13.3261 29.8364L13.586 30.2957C12.2981 29.8399 12.837 29.7317 11.7893 29.3998L12.0668 29.0373C11.6495 29.0057 10.9613 28.3338 10.7731 27.9618L10.3165 27.9798C9.76784 27.3029 9.47552 26.815 9.49676 26.4371L9.34928 26.6999C9.18203 26.4129 7.33079 24.1611 8.29121 24.6853C8.11276 24.5222 7.8756 24.4198 7.61838 23.9526L7.81395 23.729C7.35173 23.1343 6.96325 22.3721 6.99275 22.1182C7.23935 22.4512 7.41043 22.5134 7.57974 22.5704C6.41254 19.6743 6.34706 22.4108 5.46303 19.6224L5.65004 19.6074C5.50668 19.3914 5.41967 19.1569 5.30433 18.9269L5.38574 18.1157C4.54537 17.1441 5.15065 13.9843 5.27189 12.2514C5.35595 11.5467 5.97333 10.7966 6.44292 9.62022L6.1568 9.57096C6.70368 8.61702 9.27937 5.73986 10.4722 5.88794C11.0501 5.16202 10.3575 5.88529 10.2445 5.7024C11.5138 4.3889 11.9129 4.77442 12.7695 4.53815C13.6933 3.9898 11.9766 4.75201 12.4146 4.32902C14.0116 3.92107 13.5464 3.40163 15.6298 3.19456C15.8496 3.31962 15.1198 3.38776 14.9366 3.55C16.2672 2.89899 19.1473 3.04707 21.0181 3.91134C23.1887 4.92574 25.6276 7.92442 25.7237 10.7458L25.8332 10.7753C25.7777 11.8968 26.0048 13.1938 25.6114 14.3852L25.8792 13.8212Z" fill="#A80030"/>
<path d="M12.7176 17.6287L12.6432 18.0003C12.9916 18.4735 13.268 18.9861 13.7128 19.356C13.3927 18.7313 13.155 18.4732 12.7176 17.6287Z" fill="#A80030"/>
<path d="M13.5411 17.5961C13.3568 17.3923 13.2476 17.1469 13.1255 16.9023C13.2423 17.3321 13.4815 17.7014 13.7042 18.0769L13.5411 17.5961Z" fill="#A80030"/>
<path d="M28.1139 14.4287L28.036 14.624C27.8933 15.6381 27.585 16.6416 27.1125 17.5719C27.6346 16.5903 27.9723 15.5166 28.1139 14.4287Z" fill="#A80030"/>
<path d="M16.5979 0.1584C16.9563 0.0271374 17.479 0.0864267 17.8592 0C17.3637 0.041591 16.8705 0.0663686 16.3835 0.129198L16.5979 0.1584Z" fill="#A80030"/>
<path d="M4.0159 6.84888C4.09849 7.61344 3.4407 7.91018 4.16161 7.40608C4.54803 6.53562 4.01059 7.16568 4.0159 6.84888Z" fill="#A80030"/>
<path d="M3.16874 10.3875C3.33481 9.87776 3.3649 9.57158 3.42831 9.27661C2.96934 9.86331 3.21711 9.98838 3.16874 10.3875Z" fill="#A80030"/>
</svg>
