<svg width="32" height="32" viewBox="0 0 32 32" fill="none" xmlns="http://www.w3.org/2000/svg">
<g clip-path="url(#clip0_105_530)">
<path d="M31.3965 14.5742L17.4248 0.603557C16.6208 -0.201186 15.3157 -0.201186 14.5106 0.603557L11.6094 3.50477L15.2898 7.1851C16.1451 6.89613 17.1257 7.08995 17.8076 7.7718C18.4926 8.45787 18.685 9.44694 18.389 10.3051L21.9359 13.852C22.794 13.5563 23.7841 13.7477 24.4695 14.4341C25.4273 15.3916 25.4273 16.9435 24.4695 17.9016C23.5113 18.8598 21.9594 18.8598 21.0009 17.9016C20.2804 17.1805 20.1024 16.1222 20.4672 15.2346L17.1594 11.9268L17.1591 20.6315C17.3925 20.7474 17.613 20.9015 17.8076 21.0953C18.7654 22.0528 18.7654 23.6047 17.8076 24.5636C16.8494 25.5214 15.2968 25.5214 14.34 24.5636C13.3822 23.6047 13.3822 22.0528 14.34 21.0953C14.5766 20.859 14.8505 20.6803 15.1426 20.5602V11.7744C14.8505 11.6551 14.577 11.4774 14.34 11.2394C13.6143 10.5147 13.4398 9.44975 13.8116 8.55864L10.1839 4.93027L0.603908 14.5096C-0.201186 15.315 -0.201186 16.6201 0.603908 17.4248L14.5756 31.3958C15.38 32.2006 16.6847 32.2006 17.4902 31.3958L31.3965 17.4898C32.2013 16.6847 32.2013 15.3789 31.3965 14.5742Z" fill="#DE4C36"/>
</g>
<defs>
<clipPath id="clip0_105_530">
<rect width="32" height="32" fill="white"/>
</clipPath>
</defs>
</svg>
