<svg width="32" height="32" viewBox="0 0 32 32" fill="none" xmlns="http://www.w3.org/2000/svg">
<g clip-path="url(#clip0_105_533)">
<path d="M25.4247 0.438477H6.57534C3.18598 0.438477 0.438354 3.1861 0.438354 6.57546V25.4248C0.438354 28.8141 3.18598 31.5618 6.57534 31.5618H25.4247C28.814 31.5618 31.5616 28.8141 31.5616 25.4248V6.57546C31.5616 3.1861 28.814 0.438477 25.4247 0.438477Z" fill="white" stroke="#6F2502" stroke-width="21.9178"/>
<path d="M16 8.75171C12.0308 8.75171 8.75171 12.0308 8.75171 16C8.75171 19.9691 12.0308 23.2483 16 23.2483C19.9692 23.2483 23.2483 19.9691 23.2483 16C23.2483 12.0308 19.9692 8.75171 16 8.75171Z" fill="#7ED8F6"/>
<path d="M23.2483 16C23.2483 19.9691 19.9692 23.2483 16 23.2483V8.75171C19.9692 8.75171 23.2483 12.0308 23.2483 16Z" fill="#6AA9FF"/>
<path d="M27.1781 16.0001C27.1781 18.515 26.3135 21.0346 24.7285 22.9995L23.7068 22.1873C25.1215 20.4189 25.8681 18.253 25.8681 16.0001C25.8681 10.577 21.4231 6.13195 16 6.13195C10.5769 6.13195 6.13185 10.577 6.13185 16.0001C6.13185 21.4232 10.5769 25.8683 16 25.8683C17.7291 25.8683 19.4189 25.4098 20.9122 24.5452L21.5672 25.6849C19.8774 26.6673 17.9518 27.1782 16 27.1782C9.85642 27.1782 4.82191 22.1437 4.82191 16.0001C4.82191 9.85652 9.85642 4.82202 16 4.82202C22.1436 4.82202 27.1781 9.85652 27.1781 16.0001Z" fill="#FF9100"/>
<path d="M20.9122 24.5452L21.5672 25.6848C19.8774 26.6673 17.9518 27.1781 16 27.1781V25.8682C17.7291 25.8682 19.4189 25.4097 20.9122 24.5452Z" fill="#FF641A"/>
<path d="M27.1781 16.0001C27.1781 18.515 26.3135 21.0346 24.7285 22.9995L23.7068 22.1873C25.1215 20.4189 25.8681 18.253 25.8681 16.0001C25.8681 10.577 21.4231 6.13195 16 6.13195V4.82202C22.1436 4.82202 27.1781 9.85652 27.1781 16.0001Z" fill="#FF641A"/>
<path d="M27.1781 23.2484H23.2483V19.3186H24.5582V21.9385H27.1781V23.2484Z" fill="#FF641A"/>
</g>
<defs>
<clipPath id="clip0_105_533">
<rect width="32" height="32" rx="5" fill="white"/>
</clipPath>
</defs>
</svg>
