<svg width="32" height="32" viewBox="0 0 32 32" fill="none" xmlns="http://www.w3.org/2000/svg">
<path d="M30.6631 0H15.2536C15.2536 1.84488 15.9865 3.6142 17.291 4.91873C18.5955 6.22326 20.3648 6.95613 22.2097 6.95613H25.0483V9.6967C25.0508 13.535 28.1617 16.6459 32 16.6484V1.33686C32 0.598533 31.4015 0 30.6631 0Z" fill="#2684FF"/>
<path d="M23.0386 7.67798H7.62902C7.63148 11.5163 10.7424 14.6272 14.5807 14.6297H17.4193V17.3791C17.4242 21.2174 20.5371 24.3264 24.3754 24.3264V9.01484C24.3754 8.27651 23.7769 7.67798 23.0386 7.67798Z" fill="url(#paint0_linear_105_514)"/>
<path d="M15.4096 15.3516H0C0 19.1933 3.11437 22.3077 6.95613 22.3077H9.80365V25.0483C9.8061 28.8831 12.9116 31.9926 16.7464 31.9999V16.6884C16.7464 15.9501 16.1479 15.3516 15.4096 15.3516Z" fill="url(#paint1_linear_105_514)"/>
<defs>
<linearGradient id="paint0_linear_105_514" x1="1649.29" y1="10.3518" x2="997.776" y2="690.181" gradientUnits="userSpaceOnUse">
<stop offset="0.18" stop-color="#0052CC"/>
<stop offset="1" stop-color="#2684FF"/>
</linearGradient>
<linearGradient id="paint1_linear_105_514" x1="1685.78" y1="22.927" x2="932.134" y2="764.407" gradientUnits="userSpaceOnUse">
<stop offset="0.18" stop-color="#0052CC"/>
<stop offset="1" stop-color="#2684FF"/>
</linearGradient>
</defs>
</svg>
