<svg width="32" height="32" viewBox="0 0 32 32" fill="none" xmlns="http://www.w3.org/2000/svg">
<g clip-path="url(#clip0_105_605)">
<path d="M20.63 11.3699C18.073 8.81288 13.927 8.81288 11.37 11.3699C8.81292 13.927 8.81292 18.0729 11.37 20.63C13.927 23.187 18.073 23.187 20.63 20.63L16 16L20.63 11.3699Z" fill="#CEE8FA"/>
<path d="M31.8441 15.502C31.7177 15.3199 28.9638 11.3928 24.7592 8.47544L27.0916 6.14307C27.4325 5.80213 27.4325 5.24932 27.0916 4.90832C26.7506 4.56751 26.1979 4.56751 25.8568 4.90832L23.2492 7.51594C20.7946 6.094 18.3567 5.37119 16 5.37119C12.3665 5.37119 8.46698 7.13438 4.7228 10.4702C1.94006 12.9495 0.227376 15.399 0.155813 15.502C-0.0519988 15.8014 -0.0519988 16.1984 0.155813 16.4977C0.227313 16.6009 1.94006 19.0502 4.7228 21.5295C5.55674 22.2725 6.39843 22.937 7.24317 23.5219L4.90837 25.8567C4.56743 26.1977 4.56743 26.7505 4.90837 27.0915C5.07887 27.2619 5.3023 27.3471 5.52568 27.3471C5.74911 27.3471 5.97249 27.2618 6.14299 27.0915L8.75411 24.4803C11.2047 25.8948 13.6575 26.6287 15.9998 26.6287C19.6081 26.6287 23.482 24.8883 27.2024 21.5958C27.5634 21.2762 27.5971 20.7245 27.2776 20.3634C26.9582 20.0024 26.4064 19.9687 26.0453 20.2882C23.6769 22.3842 20.0116 24.8827 15.9997 24.8827C13.8849 24.8827 11.8617 24.1985 10.0345 23.2L11.4072 21.8273C12.749 22.8862 14.3738 23.4175 15.9997 23.4175C17.9001 23.4175 19.8003 22.6942 21.2471 21.2475C21.588 20.9065 21.588 20.3537 21.2471 20.0127L17.2344 16L21.2471 11.9874L23.5019 9.73256C27.5923 12.4883 30.3798 16.4554 30.4094 16.498C30.6843 16.8942 31.2284 16.9921 31.6245 16.7173C32.0208 16.4421 32.119 15.8981 31.8441 15.502ZM1.96018 15.9994C3.45012 14.0579 9.25055 7.11725 16 7.11725C17.9182 7.11725 19.9228 7.68344 21.9673 8.79794L20.5925 10.1726C17.6823 7.87588 13.4372 8.06806 10.7525 10.7525C8.06817 13.4369 7.87611 17.6823 10.1727 20.5924L8.50136 22.2637C5.26737 20.083 2.84825 17.1545 1.96018 15.9994ZM19.348 20.5825C17.362 22.0353 14.6388 22.034 12.653 20.5816L16 17.2345L19.348 20.5825ZM15.3827 15.3825L11.4175 19.3476C9.79479 17.1292 9.98461 13.9898 11.9873 11.9871C13.0936 10.8808 14.5467 10.3276 16 10.3276C17.1775 10.3276 18.355 10.6907 19.3479 11.4171L15.3827 15.3825Z" fill="#2D527C"/>
</g>
<defs>
<clipPath id="clip0_105_605">
<rect width="32" height="32" fill="white"/>
</clipPath>
</defs>
</svg>
