<svg width="32" height="32" viewBox="0 0 32 32" fill="none" xmlns="http://www.w3.org/2000/svg">
<g clip-path="url(#clip0_105_593)">
<path d="M22.721 20.9652L18.8589 17.1031L17.1036 18.8584L20.9657 22.7205L22.721 20.9652Z" fill="#959CB3"/>
<path d="M17.1033 18.8588L20.9653 22.7208L21.593 22.0931L19.2819 19.782C19.6696 19.4171 20.0413 19.0359 20.3761 18.621L18.8587 17.1035L17.1033 18.8588Z" fill="#7F8499"/>
<path d="M21.4038 20.9434C21.4038 20.9437 21.4038 20.9437 21.4038 20.9437L20.9437 21.4038C20.2324 22.1145 20.2324 23.3544 20.9437 24.0646L28.3266 31.4474C28.6822 31.8033 29.1553 31.9991 29.658 31.9991C30.1612 31.9991 30.6342 31.8032 30.9899 31.4477L31.4489 30.9889C31.8044 30.6336 32.0001 30.1611 32.0001 29.6584C32.0001 29.1561 31.8045 28.6835 31.4489 28.3282L24.0642 20.9434C23.3311 20.2104 22.1371 20.2104 21.4038 20.9434Z" fill="#5B5D6E"/>
<path d="M31.2018 30.4554C30.6991 30.4554 30.2261 30.2595 29.8704 29.9037L22.4876 22.5208C21.9645 21.9985 21.8295 21.1905 22.076 20.5164C21.8311 20.6075 21.6004 20.7471 21.4038 20.9435C21.4038 20.9438 21.4038 20.9438 21.4038 20.9438L20.9437 21.4039C20.2324 22.1146 20.2324 23.3545 20.9437 24.0647L28.3266 31.4475C28.6822 31.8034 29.1553 31.9992 29.658 31.9992C30.1612 31.9992 30.6342 31.8034 30.9899 31.4478L31.4489 30.989C31.6396 30.7985 31.7801 30.5727 31.8732 30.3282C31.6612 30.409 31.4356 30.4554 31.2018 30.4554Z" fill="#464655"/>
<path d="M11.0342 0.000854492C4.94012 0.000854492 0 4.94104 0 11.035C0 17.129 4.94012 22.0692 11.0342 22.0692C17.1283 22.0692 22.0684 17.129 22.0684 11.035C22.0684 4.94104 17.1283 0.000854492 11.0342 0.000854492ZM11.0342 19.8624C6.159 19.8624 2.20681 15.9102 2.20681 11.035C2.20681 6.15985 6.159 2.20773 11.0342 2.20773C15.9094 2.20773 19.8616 6.15985 19.8616 11.035C19.8616 15.9102 15.9094 19.8624 11.0342 19.8624Z" fill="#5B5D6E"/>
<path d="M11.0342 1.10425C5.54956 1.10425 1.10344 5.55044 1.10344 11.035C1.10344 16.5196 5.54963 20.9657 11.0342 20.9657C16.5188 20.9657 20.965 16.5196 20.965 11.035C20.965 5.55031 16.5188 1.10425 11.0342 1.10425ZM11.0342 19.8624C6.159 19.8624 2.20681 15.9102 2.20681 11.035C2.20681 6.15981 6.159 2.20769 11.0342 2.20769C15.9094 2.20769 19.8616 6.15981 19.8616 11.035C19.8616 15.9102 15.9094 19.8624 11.0342 19.8624Z" fill="#707487"/>
<path d="M11.0342 17.6554C14.6906 17.6554 17.6547 14.6913 17.6547 11.0349C17.6547 7.37853 14.6906 4.41443 11.0342 4.41443C7.37779 4.41443 4.41369 7.37853 4.41369 11.0349C4.41369 14.6913 7.37779 17.6554 11.0342 17.6554Z" fill="#00D2FF"/>
<path d="M13.6824 9.04876C14.4137 9.04876 15.0065 8.45593 15.0065 7.72464C15.0065 6.99334 14.4137 6.40051 13.6824 6.40051C12.9511 6.40051 12.3582 6.99334 12.3582 7.72464C12.3582 8.45593 12.9511 9.04876 13.6824 9.04876Z" fill="#8CE6FF"/>
<path d="M9.04806 11.035C9.04806 7.53818 10.1331 4.68168 11.5071 4.4383C11.3503 4.42718 11.1939 4.41443 11.0342 4.41443C7.37787 4.41443 4.41375 7.37849 4.41375 11.0349C4.41375 14.6913 7.37787 17.6554 11.0342 17.6554C11.1939 17.6554 11.3503 17.6427 11.5071 17.6316C10.1331 17.3882 9.04806 14.5317 9.04806 11.035Z" fill="#18BDF6"/>
<path d="M13.8382 5.04411C12.9858 4.64443 12.0379 4.41455 11.0342 4.41455C10.0304 4.41455 9.08256 4.64443 8.23019 5.04411C7.321 6.34124 6.72181 8.26674 6.63594 10.4834H4.44156C4.42644 10.6658 4.41369 10.8488 4.41369 11.0351C4.41369 11.2213 4.42644 11.4044 4.44156 11.5867H6.636C6.72188 13.8034 7.32106 15.7287 8.23025 17.0259C9.08263 17.4257 10.0306 17.6556 11.0343 17.6556C12.0381 17.6556 12.9859 17.4257 13.8384 17.0259C14.7475 15.7288 15.3468 13.8034 15.4326 11.5867H17.6271C17.6422 11.4043 17.6549 11.2213 17.6549 11.0351C17.6549 10.8488 17.6422 10.6657 17.6271 10.4834H15.4326C15.3466 8.26674 14.7474 6.34124 13.8382 5.04411ZM10.4825 17.5516C9.02938 17.0392 7.86806 14.5599 7.73844 11.5867H10.4825V17.5516ZM10.4825 10.4834H7.73844C7.86806 7.51024 9.02938 5.03086 10.4825 4.51849V10.4834ZM11.5859 17.5516V11.5867H14.33C14.2003 14.5599 13.0391 17.0392 11.5859 17.5516ZM11.5859 10.4834V4.51849C13.0391 5.03086 14.2004 7.51018 14.33 10.4834H11.5859Z" fill="#EFF2FA"/>
<path d="M10.4825 16.9076V17.5516C9.02937 17.0392 7.86806 14.5599 7.73844 11.5867H9.05875C9.05275 11.4044 9.04806 11.2212 9.04806 11.035C9.04806 10.8488 9.05269 10.6656 9.05875 10.4833H7.73844C7.86806 7.51018 9.02937 5.0308 10.4825 4.51843V5.16237C10.7912 4.7638 11.1341 4.50837 11.4987 4.44087C11.3444 4.4298 11.1913 4.41443 11.0342 4.41443C10.79 4.41443 10.5494 4.42912 10.3124 4.45549C10.271 4.45999 10.2311 4.46893 10.1899 4.47418C9.98869 4.50043 9.78912 4.53205 9.59419 4.57618C9.56975 4.58162 9.54625 4.58905 9.522 4.5948C9.30831 4.64568 9.09769 4.70462 8.89244 4.77555C8.887 4.77743 8.88169 4.77962 8.87619 4.78149C8.65569 4.8583 8.44012 4.94574 8.23062 5.04405L8.23037 5.04418C7.32119 6.3413 6.722 8.26674 6.63612 10.4834H4.44162C4.4265 10.6658 4.41375 10.8488 4.41375 11.0351C4.41375 11.2213 4.4265 11.4044 4.44162 11.5867H6.63606C6.72194 13.8034 7.32112 15.7288 8.23031 17.0259C8.44 17.1242 8.65575 17.2118 8.87644 17.2887C8.88175 17.2906 8.88694 17.2927 8.89231 17.2945C9.09781 17.3656 9.30887 17.4246 9.52287 17.4755C9.54681 17.4811 9.57 17.4884 9.594 17.4937C9.78912 17.5379 9.98875 17.5696 10.19 17.5958C10.2312 17.6011 10.2712 17.6101 10.3126 17.6145C10.5496 17.6409 10.7902 17.6556 11.0344 17.6556C11.1915 17.6556 11.3446 17.6402 11.4989 17.6291C11.1341 17.5616 10.7912 17.3062 10.4825 16.9076Z" fill="#D7DEED"/>
</g>
<defs>
<clipPath id="clip0_105_593">
<rect width="32" height="32" fill="white"/>
</clipPath>
</defs>
</svg>
