<svg width="32" height="32" viewBox="0 0 32 32" fill="none" xmlns="http://www.w3.org/2000/svg">
<g clip-path="url(#clip0_79_113)">
<path d="M16.0007 32.0001C24.8369 32.0001 32 24.837 32 16.0008C32 7.16461 24.8369 0.00146484 16.0007 0.00146484C7.16449 0.00146484 0.0013504 7.16461 0.0013504 16.0008C0.0013504 24.837 7.16449 32.0001 16.0007 32.0001Z" fill="white"/>
<path d="M31.0853 10.6653H21.2274C21.6553 14.0832 21.6581 17.8491 21.2355 21.2713H31.1065C31.6825 19.6203 31.9995 17.8474 31.9995 16.0001C31.9998 14.1286 31.6754 12.3339 31.0853 10.6653Z" fill="#D32027"/>
<path d="M21.2274 10.6654H31.0853C31.0835 10.6603 31.082 10.656 31.0802 10.6515C29.0324 4.87756 23.7652 0.629565 17.4366 0.0656738C19.8856 1.40815 20.6008 5.66149 21.2274 10.6654Z" fill="#0B0B0B"/>
<path d="M17.4369 31.9336C23.7769 31.3687 29.0516 27.106 31.0913 21.3167C31.0966 21.3013 31.1012 21.2862 31.1067 21.2712H21.2354C20.6142 26.3021 19.896 30.5855 17.4369 31.9336Z" fill="#F3C515"/>
<path d="M-7.62939e-06 16.0001C-7.62939e-06 17.8477 0.317033 19.6203 0.893017 21.2713H22.0592C22.4819 17.8489 22.4791 14.0832 22.0511 10.6653H0.914297C0.324127 12.3339 -7.62939e-06 14.1286 -7.62939e-06 16.0001Z" fill="#DB2727"/>
<path d="M0.919102 10.6514C0.917346 10.656 0.915792 10.6603 0.914036 10.6654H22.0512C21.4247 5.66148 19.8856 1.40821 17.4369 0.0657321C16.9631 0.0237798 16.4842 0 15.9997 0C9.03942 0 3.12001 4.44533 0.919102 10.6514Z" fill="#151515"/>
<path d="M22.0592 21.2712H0.893024C0.898361 21.2862 0.903158 21.3013 0.908427 21.3167C3.10076 27.5388 9.028 31.9997 15.9996 31.9997C16.4842 31.9997 16.9631 31.9759 17.4368 31.9335C19.896 30.5855 21.438 26.3021 22.0592 21.2712Z" fill="#F8D12E"/>
<rect x="9" width="23" height="32" fill="#E9F1F3" fill-opacity="0.9" style="mix-blend-mode:lighten"/>
<path d="M16 0.5C24.5604 0.5 31.5 7.43959 31.5 16C31.5 24.5604 24.5604 31.5 16 31.5C7.43959 31.5 0.5 24.5604 0.5 16C0.5 7.43959 7.43959 0.5 16 0.5Z" stroke="#1D2226"/>
</g>
<defs>
<clipPath id="clip0_79_113">
<rect width="32" height="32" fill="white"/>
</clipPath>
</defs>
</svg>
