<svg width="32" height="32" viewBox="0 0 32 32" fill="none" xmlns="http://www.w3.org/2000/svg">
<g clip-path="url(#clip0_79_134)">
<path d="M31.9291 17.4966H0.0721512V17.4971H31.9291V17.4966Z" fill="#C42126"/>
<path d="M30.2687 8.76221H1.73141V8.76268H30.2687V8.76221Z" fill="#C42126"/>
<path d="M31.4024 11.6731H0.596592V11.6736H31.4024V11.6731Z" fill="#C42126"/>
<path d="M6.87679 29.1411H25.1235L25.1244 29.1401H6.87577L6.87679 29.1411Z" fill="#C42126"/>
<path d="M15.9999 0C15.6856 0 15.3739 0.0113495 15.0644 0.0290493H16.9356C16.6259 0.0113495 16.3142 0 15.9999 0Z" fill="#C42126"/>
<path d="M31.9332 14.5847H0.0660706V14.5852H31.9332V14.5847Z" fill="#C42126"/>
<path d="M20.7289 5.85104H28.369C27.4616 4.74628 26.4069 3.76834 25.2384 2.94043H19.5014C19.9761 3.77563 20.3843 4.76115 20.7289 5.85104Z" fill="#E7E7E7"/>
<path d="M19.5014 2.9404H25.2384C22.8667 1.25966 20.0192 0.207132 16.9356 0.0290527H16.443C17.8944 0.211726 18.561 1.28588 19.5014 2.9404Z" fill="#DC3027"/>
<path d="M31.4034 11.6733C31.1189 10.6587 30.7374 9.68532 30.2686 8.7627H21.4789C21.657 9.69721 21.7975 10.6733 21.9016 11.6733H31.4034Z" fill="#E7E7E7"/>
<path d="M20.9846 8.7624H30.2683C29.7393 7.72183 29.1037 6.74536 28.369 5.85132H20.2593C20.5452 6.75651 20.788 7.73297 20.9846 8.7624Z" fill="#DC3027"/>
<path d="M22.2381 17.4958H31.9279C31.9739 17.0034 31.9999 16.5044 31.9999 16.0002C31.9999 15.523 31.9749 15.0518 31.9339 14.585H22.2404C22.272 15.553 22.2714 16.5282 22.2381 17.4958Z" fill="#E7E7E7"/>
<path d="M31.9342 14.5844C31.8465 13.5847 31.6664 12.6121 31.4034 11.6738H21.4934C21.5929 12.627 21.6586 13.6022 21.6907 14.5844H31.9342Z" fill="#DC3027"/>
<path d="M21.3117 23.3183H30.2266C30.7021 22.3967 31.0896 21.4225 31.3802 20.4072H21.7427C21.6366 21.4087 21.4926 22.3846 21.3117 23.3183Z" fill="#E7E7E7"/>
<path d="M31.3804 20.4069C31.649 19.4689 31.8354 18.4963 31.9281 17.4963H21.9362C21.9021 18.4794 21.8344 19.4543 21.7329 20.4069H31.3804Z" fill="#DC3027"/>
<path d="M25.1244 29.1401C26.3098 28.3155 27.3794 27.3365 28.3013 26.2295H20.7943C20.4434 27.3239 20.0268 28.3079 19.5435 29.1401H25.1244Z" fill="#E7E7E7"/>
<path d="M20.5119 26.2294H28.3013C29.0445 25.3364 29.6898 24.3599 30.2266 23.3184H21.2463C21.047 24.3485 20.8017 25.3255 20.5119 26.2294Z" fill="#DC3027"/>
<path d="M15.4201 31.9886C15.3877 31.9876 15.3554 31.9861 15.323 31.9851C15.3554 31.9861 15.3878 31.9876 15.4201 31.9886Z" fill="#DC3027"/>
<path d="M15.9999 32.0002C19.392 32.0002 22.535 30.9413 25.1235 29.1414H19.3329C18.3051 30.912 17.6271 32.0002 15.9999 32.0002Z" fill="#DC3027"/>
<path d="M15.9999 32.0001C15.8056 32.0001 15.6126 31.9956 15.4201 31.9888C15.6146 31.9953 15.8078 32.0001 15.9999 32.0001Z" fill="#C42126"/>
<path d="M20.0311 2.94043H6.76187C5.59321 3.76834 4.53872 4.74622 3.63096 5.85104H21.2584C20.9138 4.76115 20.5059 3.77563 20.0311 2.94043Z" fill="#F3F4F5"/>
<path d="M6.76188 2.9404H20.0311C19.0906 1.28588 17.8944 0.211726 16.443 0.0290527H15.0644C11.9808 0.207132 9.13331 1.25966 6.76188 2.9404Z" fill="#E73625"/>
<path d="M0.596863 11.6733H22.4062C22.3021 10.6731 22.1616 9.69721 21.9835 8.7627H1.73168C1.26277 9.68538 0.881344 10.6587 0.596863 11.6733Z" fill="#F3F4F5"/>
<path d="M3.63096 5.85107C2.89683 6.74512 2.26071 7.72151 1.73195 8.76216H21.9835C21.7872 7.73293 21.5445 6.75654 21.2584 5.85107H3.63096Z" fill="#E73625"/>
<path d="M0.000133514 16.0002C0.000133514 16.5045 0.026413 17.0035 0.0721488 17.4958H22.6017C22.635 16.5282 22.6355 15.5533 22.604 14.5852H0.0660687C0.0251295 15.0519 0.000133514 15.523 0.000133514 16.0002Z" fill="#F3F4F5"/>
<path d="M0.0660706 14.5844H22.6037C22.5716 13.602 22.5057 12.6271 22.4064 11.6738H0.596592C0.333595 12.6123 0.153489 13.5847 0.0660706 14.5844Z" fill="#E73625"/>
<path d="M22.3983 20.407H0.619831C0.910392 21.4226 1.29817 22.3965 1.77336 23.3181H21.9673C22.1482 22.3846 22.2919 21.4086 22.3983 20.407Z" fill="#F3F4F5"/>
<path d="M0.619832 20.4069H22.3983C22.4997 19.4543 22.5675 18.4791 22.6017 17.4963H0.0721512C0.164839 18.4965 0.351565 19.4689 0.619832 20.4069Z" fill="#E73625"/>
<path d="M6.87577 29.1401H19.9824C20.4657 28.3077 20.8825 27.3239 21.2332 26.2295H3.69893C4.6208 27.3365 5.69016 28.3155 6.87577 29.1401Z" fill="#F3F4F5"/>
<path d="M1.77363 23.3181C2.3105 24.3597 2.95567 25.3362 3.69893 26.2292H21.2332C21.5227 25.3253 21.768 24.3484 21.9673 23.3181H1.77363Z" fill="#E73625"/>
<path d="M15.3231 31.985C15.3554 31.9861 15.3877 31.9875 15.4201 31.9886C15.6126 31.9954 15.8056 31.9999 15.9998 31.9999C17.6271 31.9999 18.9539 30.9118 19.9818 29.1411H6.87679C9.29173 30.8207 12.1905 31.8545 15.3231 31.985Z" fill="#E73625"/>
<path d="M15.6691 0.00830078C7.47 0.175098 0.787304 6.50576 0.0680962 14.5584H15.6694V0.00830078H15.6691Z" fill="#283991"/>
<path d="M3.20151 9.06519L3.44525 9.81574H4.23499L3.5961 10.2799L3.84012 11.0309L3.20151 10.5666L2.5631 11.0309L2.80664 10.2799L2.16796 9.81574H2.95769L3.20151 9.06519Z" fill="#EFEFEF"/>
<path d="M3.20151 11.717L3.44525 12.4681H4.23499L3.5961 12.9322L3.84012 13.6833L3.20151 13.2189L2.5631 13.6833L2.80664 12.9322L2.16796 12.4681H2.95769L3.20151 11.717Z" fill="#EFEFEF"/>
<path d="M5.85364 5.08691L6.09745 5.83774H6.88692L6.24824 6.30212L6.49205 7.05268L5.85364 6.58883L5.21496 7.05268L5.45877 6.30212L4.81982 5.83774H5.60956L5.85364 5.08691Z" fill="#EFEFEF"/>
<path d="M5.85364 7.73901L6.09745 8.48984H6.88692L6.24824 8.95368L6.49205 9.70477L5.85364 9.24093L5.21496 9.70477L5.45877 8.95368L4.81982 8.48984H5.60956L5.85364 7.73901Z" fill="#EFEFEF"/>
<path d="M5.85364 10.3911L6.09745 11.1422H6.88692L6.24824 11.6058L6.49205 12.3569L5.85364 11.8926L5.21496 12.3569L5.45877 11.6058L4.81982 11.1422H5.60956L5.85364 10.3911Z" fill="#EFEFEF"/>
<path d="M1.18798 12.3569L0.943969 11.6058L1.58265 11.1419H0.793385L0.775685 11.0872C0.68901 11.3552 0.610712 11.6265 0.538494 11.9009L0.549641 11.8926L1.18798 12.3569Z" fill="#EFEFEF"/>
<path d="M2.5631 8.37881L3.20151 7.91449L3.84019 8.37881L3.59617 7.62771L4.23485 7.1634H3.44511L3.2013 6.41284L2.95749 7.1634H2.66646C2.61241 7.24527 2.56012 7.32763 2.50756 7.41072L2.80671 7.62771L2.5631 8.37881Z" fill="#EFEFEF"/>
<path d="M5.85364 3.93657L6.49205 4.40042L6.24824 3.64986L6.88665 3.18555H6.43065C6.04334 3.47509 5.66969 3.78153 5.31069 4.10486L5.21442 4.40042L5.85364 3.93657Z" fill="#EFEFEF"/>
<path d="M7.8671 3.07455L8.50578 2.61023L9.14419 3.07455L8.90038 2.32345L9.53879 1.85961H8.74932L8.71622 1.75854C8.44869 1.89521 8.18394 2.03742 7.9252 2.18875L8.11064 2.32339L7.8671 3.07455Z" fill="#EFEFEF"/>
<path d="M8.50578 3.76099L8.74959 4.51134H9.53906L8.90038 4.97565L9.14419 5.72675L8.50578 5.26236L7.8671 5.72675L8.11091 4.97565L7.47203 4.51134H8.2617L8.50578 3.76099Z" fill="#EFEFEF"/>
<path d="M8.50578 6.41309L8.74959 7.16344H9.53906L8.90038 7.62775L9.14419 8.37885L8.50578 7.91446L7.8671 8.37885L8.11091 7.62775L7.47203 7.16344H8.2617L8.50578 6.41309Z" fill="#EFEFEF"/>
<path d="M8.50578 9.06519L8.74959 9.81574H9.53906L8.90038 10.2799L9.14419 11.0309L8.50578 10.5666L7.8671 11.0309L8.11091 10.2799L7.47203 9.81574H8.2617L8.50578 9.06519Z" fill="#EFEFEF"/>
<path d="M8.50578 11.717L8.74959 12.4681H9.53906L8.90038 12.9322L9.14419 13.6833L8.50578 13.2189L7.8671 13.6833L8.11091 12.9322L7.47203 12.4681H8.2617L8.50578 11.717Z" fill="#EFEFEF"/>
<path d="M11.1579 2.43457L11.4017 3.18539H12.1912L11.5528 3.64978L11.7963 4.40033L11.1579 3.93649L10.519 4.40033L10.763 3.64978L10.1242 3.18539H10.9138L11.1579 2.43457Z" fill="#EFEFEF"/>
<path d="M11.1579 5.08691L11.4017 5.83774H12.1912L11.5528 6.30212L11.7963 7.05268L11.1579 6.58883L10.519 7.05268L10.763 6.30212L10.1242 5.83774H10.9138L11.1579 5.08691Z" fill="#EFEFEF"/>
<path d="M11.1579 7.73901L11.4017 8.48984H12.1912L11.5528 8.95368L11.7963 9.70477L11.1579 9.24093L10.519 9.70477L10.763 8.95368L10.1242 8.48984H10.9138L11.1579 7.73901Z" fill="#EFEFEF"/>
<path d="M11.1579 10.3911L11.4017 11.1422H12.1912L11.5528 11.6058L11.7963 12.3569L11.1579 11.8926L10.519 12.3569L10.763 11.6058L10.1242 11.1422H10.9138L11.1579 10.3911Z" fill="#EFEFEF"/>
<path d="M13.8101 1.10889L14.0539 1.85971H14.8433L14.2047 2.32355L14.4485 3.07465L13.8101 2.61026L13.1712 3.07465L13.4152 2.32355L12.7763 1.85971H13.5658L13.8101 1.10889Z" fill="#EFEFEF"/>
<path d="M13.8101 3.76099L14.0539 4.51134H14.8433L14.2047 4.97565L14.4485 5.72675L13.8101 5.26236L13.1712 5.72675L13.4152 4.97565L12.7763 4.51134H13.5658L13.8101 3.76099Z" fill="#EFEFEF"/>
<path d="M13.8101 6.41309L14.0539 7.16344H14.8433L14.2047 7.62775L14.4485 8.37885L13.8101 7.91446L13.1712 8.37885L13.4152 7.62775L12.7763 7.16344H13.5658L13.8101 6.41309Z" fill="#EFEFEF"/>
<path d="M13.8101 9.06519L14.0539 9.81574H14.8433L14.2047 10.2799L14.4485 11.0309L13.8101 10.5666L13.1712 11.0309L13.4152 10.2799L12.7763 9.81574H13.5658L13.8101 9.06519Z" fill="#EFEFEF"/>
<path d="M13.8101 11.717L14.0539 12.4681H14.8433L14.2047 12.9322L14.4485 13.6833L13.8101 13.2189L13.1712 13.6833L13.4152 12.9322L12.7763 12.4681H13.5658L13.8101 11.717Z" fill="#EFEFEF"/>
<rect x="24" width="27" height="32" fill="#E9F1F3" fill-opacity="0.9" style="mix-blend-mode:lighten"/>
</g>
<defs>
<clipPath id="clip0_79_134">
<rect width="32" height="32" fill="white"/>
</clipPath>
</defs>
</svg>
