<svg width="32" height="32" viewBox="0 0 32 32" fill="none" xmlns="http://www.w3.org/2000/svg">
<g clip-path="url(#clip0_79_129)">
<path d="M16 32C24.8366 32 32 24.8366 32 16C32 7.16344 24.8366 0 16 0C7.16344 0 0 7.16344 0 16C0 24.8366 7.16344 32 16 32Z" fill="#00C85F"/>
<path d="M15.3879 6.49321L1.79206 15.5571C1.4645 15.7756 1.4645 16.2569 1.79206 16.4753L15.3879 25.5391C15.7586 25.7863 16.2414 25.7863 16.6121 25.5391L30.2079 16.4753C30.5355 16.2568 30.5355 15.7755 30.2079 15.5571L16.6121 6.49321C16.2414 6.24608 15.7586 6.24608 15.3879 6.49321Z" fill="#FFF046"/>
<path d="M16 22.6208C19.6565 22.6208 22.6207 19.6566 22.6207 16.0001C22.6207 12.3436 19.6565 9.37939 16 9.37939C12.3435 9.37939 9.37931 12.3436 9.37931 16.0001C9.37931 19.6566 12.3435 22.6208 16 22.6208Z" fill="#4B82E1"/>
<path d="M10.3447 12.5705C10.1278 12.9273 9.9445 13.3056 9.79731 13.7025C12.8726 13.4934 17.8077 14.0412 22.1413 18.4657C22.2958 18.0812 22.4165 17.68 22.497 17.2638C18.2559 13.1965 13.5461 12.4662 10.3447 12.5705Z" fill="white"/>
</g>
<defs>
<clipPath id="clip0_79_129">
<rect width="32" height="32" fill="white"/>
</clipPath>
</defs>
</svg>
